<?xml version="1.0" encoding="utf-8"?>
<!-- Generator: Adobe Illustrator 27.1.1, SVG Export Plug-In . SVG Version: 6.00 Build 0)  -->
<svg version="1.1" id="Layer_1" xmlns="http://www.w3.org/2000/svg" xmlns:xlink="http://www.w3.org/1999/xlink" x="0px" y="0px"
	 viewBox="0 0 1000 1000" style="enable-background:new 0 0 1000 1000;" xml:space="preserve">
<style type="text/css">
	.st0{fill:#010101;}
	.st1{clip-path:url(#SVGID_00000027564462107653678260000013576737401052216758_);}
	.st2{clip-path:url(#SVGID_00000173157324638543546910000016059571340356397719_);fill:#010101;}
	.st3{clip-path:url(#SVGID_00000182502043830779797120000011212223493084624772_);fill:#010101;}
	.st4{enable-background:new    ;}
</style>
<g>
	<path class="st0" d="M482.34,961.93c-39.14,0-77.96-5.08-116.02-15.23c-56.73-15.12-109.37-40.78-156.46-76.27
		c-47.09-35.49-86.27-79.02-116.44-129.39C62.17,688.9,42,631.68,33.46,570.96c-8.53-60.68-4.93-121.23,10.71-179.94
		c15.11-56.72,40.76-109.35,76.23-156.44c35.48-47.09,79-86.27,129.35-116.44C301.89,86.9,359.1,66.73,419.81,58.19
		s121.28-4.94,180.01,10.71c56.73,15.11,109.37,40.76,156.46,76.24c47.09,35.47,86.27,78.99,116.44,129.33
		c31.24,52.12,51.4,109.32,59.94,170l0,0c8.54,60.72,4.94,121.28-10.71,180.02c-15.11,56.74-40.76,109.39-76.24,156.49
		s-79,86.29-129.36,116.47C664.22,928.7,607,948.88,546.29,957.42C524.95,960.43,503.59,961.93,482.34,961.93z M483.36,59.4
		c-20.73,0-41.66,1.44-62.76,4.41C175.8,98.23,4.65,325.39,39.07,570.17c34.46,244.86,261.65,416.06,506.46,381.64
		c244.8-34.47,415.94-261.73,381.54-506.56l0,0C895.59,221.59,703.12,59.4,483.36,59.4z"/>
</g>
<g>
	<g>
		<g>
			<defs>
				<polygon id="SVGID_1_" points="68.12,377.26 540.31,534.82 876.1,263.61 475.94,28.87 185.61,145.87 				"/>
			</defs>
			<clipPath id="SVGID_00000157284387926578302840000017674274037858238110_">
				<use xlink:href="#SVGID_1_"  style="overflow:visible;"/>
			</clipPath>
			<g style="clip-path:url(#SVGID_00000157284387926578302840000017674274037858238110_);">
				<path class="st0" d="M432.11,142.9c97.51-13.67,194.58,11.35,273.09,70.54c78.6,59.25,129.43,145.49,143.14,242.9
					c13.72,97.5-11.36,194.41-70.57,273.12c-59.13,78.54-145.51,129.39-243,143.11c-97.41,13.69-194.36-11.33-272.92-70.54
					C183.25,742.73,132.4,656.5,118.68,559c-13.69-97.41,11.39-194.33,70.57-272.98C248.42,207.45,334.71,156.62,432.11,142.9
					 M428.6,117.96C213.42,148.23,63.51,347.3,93.78,562.47c30.28,215.22,229.29,365.29,444.49,335.02
					c215.36-30.28,365.2-229.42,334.96-444.66C842.94,237.67,643.96,87.68,428.6,117.96L428.6,117.96z"/>
				<path class="st0" d="M434.84,162.32c92.38-13.01,184.12,10.73,258.57,66.77c74.42,56.05,122.51,137.8,135.48,230.01
					c12.98,92.25-10.7,184.07-66.76,258.52c-56.09,74.46-137.72,122.53-230.1,135.53c-92.16,12.98-183.98-10.73-258.36-66.84
					c-74.45-56.05-122.62-137.8-135.61-230.05c-12.94-92.17,10.82-184.06,66.89-258.42C260.94,223.39,342.66,175.3,434.84,162.32
					 M433.95,156.09c-194.1,27.31-329.4,206.82-302.09,401.06c27.32,194.28,206.92,329.55,401.01,302.24
					c194.32-27.34,329.63-206.89,302.3-401.18C807.85,263.97,628.27,128.75,433.95,156.09L433.95,156.09z"/>
			</g>
		</g>
	</g>
	<g>
		<g>
			<defs>
				<polygon id="SVGID_00000034087122467489398370000016217845330244744881_" points="193.89,809.67 515.97,632.37 883.26,712.7 
					507.93,1020.77 				"/>
			</defs>
			<clipPath id="SVGID_00000001636482467843659720000006863594524439817141_">
				<use xlink:href="#SVGID_00000034087122467489398370000016217845330244744881_"  style="overflow:visible;"/>
			</clipPath>
			<path style="clip-path:url(#SVGID_00000001636482467843659720000006863594524439817141_);fill:#010101;" d="M432.11,142.9
				c97.51-13.67,194.58,11.35,273.09,70.54c78.6,59.25,129.43,145.49,143.14,242.9c13.72,97.5-11.36,194.41-70.57,273.12
				c-59.13,78.54-145.51,129.39-243,143.11c-97.41,13.69-194.36-11.33-272.92-70.54C183.25,742.73,132.4,656.5,118.68,559
				c-13.69-97.41,11.39-194.33,70.57-272.98C248.42,207.45,334.71,156.62,432.11,142.9 M428.6,117.96
				C213.42,148.23,63.51,347.3,93.78,562.47c30.28,215.22,229.29,365.29,444.49,335.02c215.36-30.28,365.2-229.42,334.96-444.66
				C842.94,237.67,643.96,87.68,428.6,117.96L428.6,117.96z"/>
		</g>
		<g>
			<defs>
				<polygon id="SVGID_00000055707255764616677490000000116375521335853230_" points="193.89,809.67 515.97,632.37 883.26,712.7 
					507.93,1020.77 				"/>
			</defs>
			<clipPath id="SVGID_00000000205688040229523590000001228301056830411961_">
				<use xlink:href="#SVGID_00000055707255764616677490000000116375521335853230_"  style="overflow:visible;"/>
			</clipPath>
			<path style="clip-path:url(#SVGID_00000000205688040229523590000001228301056830411961_);fill:#010101;" d="M434.84,162.32
				c92.38-13.01,184.12,10.73,258.57,66.77c74.42,56.05,122.51,137.8,135.48,230.01c12.98,92.25-10.7,184.07-66.76,258.52
				c-56.09,74.46-137.72,122.53-230.1,135.53c-92.16,12.98-183.98-10.73-258.36-66.84c-74.45-56.05-122.62-137.8-135.61-230.05
				c-12.94-92.17,10.82-184.06,66.89-258.42C260.94,223.39,342.66,175.3,434.84,162.32 M433.95,156.09
				c-194.1,27.31-329.4,206.82-302.09,401.06c27.32,194.28,206.92,329.55,401.01,302.24c194.32-27.34,329.63-206.89,302.3-401.18
				C807.85,263.97,628.27,128.75,433.95,156.09L433.95,156.09z"/>
		</g>
	</g>
</g>
<g>
	<g class="st4">
		<path class="st0" d="M330.48,282.84c0.31,2.23,0.24,3.89-0.23,4.96c-0.47,1.07-1.18,1.68-2.13,1.81l-12.34,1.74
			c2.55,1.98,4.47,4.3,5.76,6.95c1.28,2.65,2.14,5.47,2.56,8.47c0.7,4.97,0.52,9.49-0.53,13.54c-1.06,4.05-2.88,7.61-5.47,10.67
			c-2.59,3.06-5.83,5.58-9.72,7.56c-3.88,1.98-8.31,3.31-13.29,4.01c-3.51,0.49-6.9,0.5-10.19,0.02c-3.29-0.48-5.89-1.3-7.81-2.46
			c-0.99,1.31-1.74,2.75-2.27,4.32c-0.53,1.57-0.66,3.31-0.39,5.22c0.31,2.23,1.61,3.94,3.89,5.11c2.28,1.18,5.15,1.58,8.61,1.23
			l22.61-2.21c4.29-0.47,8.29-0.44,12.01,0.12c3.72,0.55,7.02,1.61,9.91,3.19c2.89,1.58,5.26,3.68,7.13,6.31s3.06,5.83,3.59,9.59
			c0.56,3.95,0.26,7.83-0.9,11.64c-1.16,3.8-3.25,7.3-6.28,10.49c-3.03,3.19-7.08,5.94-12.16,8.25c-5.07,2.31-11.21,3.97-18.42,4.98
			c-6.95,0.98-12.95,1.22-17.99,0.73s-9.27-1.54-12.68-3.14c-3.41-1.6-6.02-3.72-7.82-6.36c-1.8-2.64-2.94-5.62-3.4-8.93
			c-0.3-2.1-0.33-4.18-0.1-6.23c0.23-2.05,0.75-4.04,1.55-5.97c0.8-1.93,1.87-3.82,3.2-5.67c1.33-1.85,2.91-3.71,4.73-5.59
			c-3.35-1.15-5.94-2.84-7.78-5.05c-1.84-2.21-2.96-4.72-3.35-7.53c-0.55-3.89-0.24-7.48,0.92-10.76c1.16-3.28,2.75-6.3,4.77-9.06
			c-2.31-2.08-4.25-4.52-5.81-7.33c-1.56-2.8-2.64-6.31-3.24-10.52c-0.69-4.91-0.48-9.43,0.63-13.55c1.11-4.12,2.94-7.73,5.5-10.82
			c2.55-3.09,5.79-5.64,9.7-7.66c3.91-2.01,8.29-3.36,13.14-4.04c2.62-0.37,5.07-0.57,7.38-0.6c2.3-0.03,4.48,0.07,6.53,0.3
			l26.02-3.66c1.08-0.15,1.97,0.26,2.66,1.24C329.68,279.1,330.18,280.67,330.48,282.84z M308.99,308.98
			c-0.83-5.87-3.08-10.21-6.76-13.05c-3.68-2.83-8.49-3.83-14.42-3c-3.06,0.43-5.65,1.32-7.77,2.65c-2.12,1.34-3.8,3.01-5.05,5
			c-1.25,2-2.08,4.21-2.48,6.64c-0.41,2.43-0.43,4.92-0.07,7.47c0.8,5.68,3.04,9.91,6.71,12.71c3.68,2.8,8.42,3.79,14.22,2.97
			c3.12-0.44,5.77-1.31,7.92-2.63c2.16-1.31,3.86-2.95,5.11-4.92c1.25-1.96,2.08-4.15,2.49-6.54
			C309.31,313.91,309.34,311.47,308.99,308.98z M326.53,376.06c-0.52-3.7-2.44-6.34-5.75-7.92c-3.31-1.58-7.56-2.07-12.74-1.48
			l-22.4,2.37c-1.82,1.88-3.28,3.63-4.38,5.25c-1.11,1.62-1.95,3.13-2.53,4.55c-0.58,1.41-0.93,2.78-1.03,4.1
			c-0.11,1.32-0.07,2.64,0.12,3.98c0.58,4.14,3.13,6.99,7.64,8.53c4.51,1.54,10.53,1.79,18.05,0.73c4.78-0.67,8.72-1.7,11.81-3.08
			c3.09-1.38,5.52-2.97,7.28-4.78c1.76-1.81,2.93-3.76,3.52-5.86C326.69,380.37,326.83,378.23,326.53,376.06z"/>
		<path class="st0" d="M401.32,274.63c0.2,1.4,0.33,2.59,0.4,3.55c0.07,0.97,0.05,1.73-0.07,2.3c-0.11,0.57-0.3,1.02-0.54,1.34
			c-0.25,0.33-0.62,0.53-1.13,0.6c-0.51,0.07-1.15,0.02-1.93-0.17c-0.77-0.18-1.64-0.35-2.61-0.51c-0.97-0.16-2.04-0.28-3.22-0.38
			c-1.18-0.09-2.45-0.05-3.78,0.14c-1.59,0.22-3.11,0.76-4.55,1.62c-1.44,0.85-2.9,2.13-4.39,3.84c-1.48,1.71-2.98,3.9-4.49,6.58
			c-1.51,2.68-3.13,5.94-4.87,9.76l7.97,56.63c0.07,0.51,0,0.96-0.2,1.35c-0.21,0.39-0.58,0.75-1.12,1.08
			c-0.54,0.33-1.31,0.64-2.31,0.91c-1,0.27-2.3,0.52-3.9,0.74c-1.53,0.22-2.82,0.33-3.85,0.35c-1.04,0.01-1.88-0.06-2.52-0.23
			c-0.64-0.17-1.1-0.41-1.37-0.73c-0.27-0.32-0.44-0.73-0.52-1.24l-12.11-86.09c-0.07-0.51-0.04-0.95,0.11-1.33
			c0.14-0.38,0.48-0.75,1.01-1.12c0.53-0.37,1.24-0.66,2.12-0.88c0.88-0.22,2.05-0.43,3.52-0.64c1.4-0.2,2.57-0.31,3.51-0.35
			c0.94-0.03,1.68,0.06,2.23,0.27c0.55,0.21,0.96,0.48,1.24,0.8c0.27,0.32,0.44,0.74,0.52,1.25l1.76,12.53
			c1.87-3.78,3.7-6.89,5.46-9.35c1.77-2.46,3.49-4.44,5.16-5.95c1.67-1.5,3.39-2.62,5.14-3.36c1.75-0.73,3.55-1.23,5.4-1.49
			c0.83-0.12,1.78-0.2,2.84-0.25c1.07-0.05,2.19-0.03,3.37,0.06c1.18,0.09,2.26,0.23,3.23,0.42c0.97,0.19,1.67,0.42,2.1,0.68
			c0.43,0.27,0.72,0.53,0.89,0.8c0.17,0.27,0.33,0.62,0.49,1.05c0.16,0.43,0.31,1.08,0.47,1.93
			C400.93,272,401.11,273.16,401.32,274.63z"/>
		<path class="st0" d="M494.92,295.8c0.35,2.49-0.03,4.35-1.13,5.57c-1.1,1.23-2.45,1.96-4.05,2.18l-56.7,7.98
			c0.67,4.78,1.76,9.02,3.26,12.71s3.56,6.75,6.19,9.18c2.63,2.43,5.84,4.12,9.63,5.08s8.29,1.08,13.48,0.35
			c4.1-0.58,7.71-1.43,10.82-2.55s5.78-2.26,8-3.42c2.22-1.16,4.04-2.18,5.45-3.06c1.41-0.88,2.5-1.38,3.27-1.49
			c0.45-0.06,0.86-0.01,1.25,0.17c0.38,0.17,0.7,0.47,0.96,0.89c0.25,0.42,0.49,1.02,0.69,1.8c0.21,0.78,0.39,1.75,0.56,2.9
			c0.12,0.83,0.18,1.55,0.21,2.17c0.02,0.62,0.02,1.17-0.01,1.66c-0.03,0.49-0.13,0.95-0.3,1.36c-0.17,0.41-0.41,0.82-0.71,1.22
			c-0.3,0.4-1.26,1.12-2.87,2.16c-1.61,1.04-3.73,2.13-6.37,3.29c-2.64,1.15-5.71,2.28-9.23,3.4c-3.52,1.11-7.32,1.96-11.4,2.53
			c-7.08,1-13.42,0.88-19.02-0.35c-5.6-1.23-10.5-3.53-14.68-6.91c-4.18-3.38-7.61-7.87-10.29-13.48
			c-2.68-5.61-4.56-12.3-5.65-20.08c-1.04-7.4-1.02-14.18,0.06-20.35c1.08-6.17,3.14-11.56,6.16-16.18
			c3.02-4.62,6.93-8.39,11.72-11.31c4.79-2.92,10.34-4.82,16.66-5.71c6.76-0.95,12.67-0.68,17.72,0.82s9.37,3.87,12.95,7.1
			c3.58,3.24,6.43,7.23,8.56,11.96c2.13,4.74,3.59,9.92,4.38,15.53L494.92,295.8z M478.38,293.35c-0.97-8.32-3.74-14.56-8.28-18.74
			c-4.54-4.17-10.64-5.72-18.27-4.65c-3.91,0.55-7.24,1.77-9.99,3.65c-2.75,1.88-4.94,4.17-6.59,6.88
			c-1.65,2.71-2.79,5.74-3.43,9.12c-0.64,3.37-0.77,6.82-0.41,10.35L478.38,293.35z"/>
		<path class="st0" d="M590.38,330.17c0.11,0.76-0.07,1.38-0.52,1.83c-0.46,0.45-1.12,0.84-1.98,1.16s-2.16,0.6-3.88,0.84
			c-1.66,0.23-3,0.32-4.01,0.27c-1.02-0.05-1.77-0.24-2.27-0.56c-0.5-0.32-0.8-0.86-0.91-1.63l-1.21-8.61
			c-3.2,4.55-6.95,8.26-11.26,11.14c-4.31,2.88-9.05,4.69-14.21,5.41c-4.53,0.64-8.71,0.62-12.54-0.04
			c-3.83-0.66-7.2-1.93-10.09-3.8c-2.9-1.87-5.29-4.33-7.18-7.38c-1.89-3.05-3.13-6.65-3.71-10.79c-0.68-4.84-0.29-9.19,1.19-13.04
			c1.47-3.85,3.89-7.21,7.26-10.09c3.37-2.88,7.65-5.28,12.84-7.22c5.19-1.93,11.13-3.37,17.83-4.31l11.86-1.67l-0.94-6.7
			c-0.47-3.32-1.23-6.2-2.29-8.65c-1.06-2.45-2.49-4.41-4.29-5.88c-1.8-1.47-4-2.46-6.61-2.97c-2.61-0.51-5.73-0.51-9.36,0
			c-3.89,0.55-7.32,1.5-10.28,2.86c-2.96,1.36-5.53,2.76-7.7,4.2c-2.17,1.44-3.97,2.74-5.4,3.88c-1.43,1.15-2.53,1.77-3.3,1.88
			c-0.51,0.07-0.98,0.01-1.39-0.19c-0.42-0.2-0.81-0.54-1.17-1.01c-0.36-0.47-0.66-1.09-0.9-1.87c-0.24-0.78-0.43-1.65-0.56-2.6
			c-0.22-1.59-0.29-2.87-0.2-3.83c0.09-0.95,0.51-1.91,1.26-2.86c0.74-0.95,2.09-2.13,4.04-3.54c1.95-1.41,4.23-2.77,6.84-4.08
			c2.61-1.31,5.5-2.5,8.67-3.56c3.17-1.06,6.41-1.83,9.72-2.29c6.18-0.87,11.54-0.91,16.08-0.12c4.53,0.79,8.33,2.36,11.39,4.69
			c3.06,2.33,5.48,5.42,7.25,9.27c1.78,3.85,3.04,8.45,3.79,13.81L590.38,330.17z M569.16,293.06l-13.49,1.9
			c-4.34,0.61-8.05,1.51-11.13,2.69c-3.09,1.18-5.58,2.64-7.48,4.37c-1.9,1.73-3.21,3.67-3.91,5.82c-0.71,2.15-0.88,4.53-0.51,7.14
			c0.63,4.46,2.55,7.82,5.76,10.07c3.21,2.25,7.37,3.01,12.47,2.29c4.14-0.58,7.84-2.18,11.08-4.78s6.5-6.34,9.79-11.23
			L569.16,293.06z"/>
		<path class="st0" d="M661.41,313.64c0.26,1.85,0.34,3.33,0.24,4.45c-0.1,1.12-0.37,1.97-0.81,2.55c-0.44,0.58-1.14,1.17-2.09,1.76
			c-0.96,0.59-2.07,1.12-3.34,1.59c-1.27,0.47-2.62,0.9-4.06,1.3c-1.44,0.4-2.89,0.7-4.36,0.91c-4.46,0.63-8.37,0.58-11.73-0.16
			c-3.36-0.73-6.22-2.15-8.6-4.25c-2.38-2.1-4.29-4.92-5.73-8.46c-1.44-3.54-2.51-7.79-3.21-12.77l-7.08-50.32l-12.05,1.7
			c-0.96,0.13-1.79-0.27-2.51-1.21c-0.72-0.94-1.24-2.56-1.56-4.85c-0.17-1.21-0.23-2.24-0.19-3.1c0.04-0.85,0.15-1.57,0.33-2.14
			c0.18-0.58,0.46-1.01,0.84-1.29c0.38-0.28,0.83-0.46,1.34-0.53l11.96-1.68l-2.88-20.47c-0.06-0.45-0.01-0.88,0.16-1.29
			c0.17-0.41,0.54-0.81,1.1-1.18c0.56-0.37,1.35-0.69,2.35-0.96c1-0.27,2.27-0.51,3.8-0.73c1.59-0.22,2.91-0.34,3.95-0.36
			c1.04-0.01,1.87,0.08,2.48,0.29c0.61,0.21,1.08,0.48,1.39,0.83c0.31,0.35,0.49,0.74,0.56,1.19l2.88,20.47l22.1-3.11
			c0.51-0.07,0.97-0.02,1.39,0.15c0.41,0.17,0.8,0.51,1.17,1.01c0.36,0.5,0.67,1.16,0.91,1.97c0.24,0.81,0.45,1.82,0.62,3.03
			c0.32,2.29,0.27,4-0.16,5.09c-0.43,1.1-1.12,1.72-2.08,1.85l-22.1,3.11l6.75,48.02c0.83,5.93,2.34,10.29,4.52,13.07
			c2.18,2.78,5.53,3.86,10.06,3.22c1.47-0.21,2.75-0.53,3.86-0.98c1.11-0.45,2.08-0.89,2.93-1.34c0.85-0.45,1.57-0.86,2.17-1.23
			c0.6-0.38,1.15-0.6,1.66-0.67c0.32-0.04,0.63-0.01,0.94,0.11c0.31,0.12,0.58,0.39,0.8,0.82c0.22,0.42,0.45,1.01,0.69,1.76
			C661.05,311.55,661.25,312.5,661.41,313.64z"/>
	</g>
</g>
<polyline class="st0" points="516.8,745.22 481.01,725.9 521.75,719.35 528.22,680.2 546.93,715.25 585.97,711.01 559.78,738.74 
	576.82,775.6 541.04,757.74 511.68,786.03 516.8,745.22 "/>
<g>
	<path d="M736.3,508.22c4.75,27.14,28.85,46.79,55.35,46.54c24.3-0.27,44.76-9.93,63.57-24.33c2.82-2.3,5.63-4.56,9.29-7.49
		c1.33,9.46,2.09,18.33,3.96,26.85c1.37,6.39-0.64,9.92-5.52,13.93c-23.96,19.45-51.67,27.74-82,26.74
		c-24.72-0.71-45.31-11.81-60.34-31.67c-23.9-31.49-30.44-66.84-17.66-104.4c11.99-35.3,43.36-52.87,77.55-53.6
		c35.42-0.92,60.11,16.97,72.98,51.85c3.9,10.59,5.93,21.78,8.91,32.69c1.08,3.9-0.33,5.38-4.42,5.92
		c-38.43,5.27-76.88,10.64-115.22,16.06C740.6,507.6,738.58,507.89,736.3,508.22z M823.19,470.87c-3.47-25.7-24-41.86-48.21-38.03
		c-26.41,4.26-45.42,27.67-40.93,50.56C763.74,479.22,793.49,475.07,823.19,470.87z"/>
	<path d="M413.98,607.57c0.96,6.91,2.04,13.22,2.73,19.56c0.15,1.03-0.26,2.54-1.06,3.1c-9.3,8.1-18.42,16.33-31.58,17.98
		c-13.14,1.73-23.94-0.51-30.13-14.15c-9.99,10.04-21.14,17.9-34.35,22.24c-26.84,9.02-51.72-1.7-60.3-27.02
		c-6.43-18.97-2.15-36.09,12.71-49.91c12.64-12,28.42-19.27,43.61-27.37c7.32-3.83,14.57-7.83,22.08-11.4
		c2.49-1.3,3.26-2.65,2.67-5.41c-1.16-5.19-1.61-10.64-3.3-15.74c-3.88-12.15-12.21-17.74-25.1-17.8
		c-22.45,0-39.53,10.27-53.67,26.89c-2.85,3.35-5.28,7.17-8.57,11.47c-0.46-2.05-0.83-3.24-1.01-4.49
		c-1.47-9.7-2.51-19.26-4.19-28.89c-0.96-4.61,0.41-8.1,3.12-11.45c7.2-8.92,16.09-15.94,26.62-20.38
		c15.64-6.8,31.95-9.54,48.97-7.83c29.14,2.79,47.51,20.78,51.71,50.93c4.42,30.03,8.64,59.89,12.84,89.9
		c0.2,1.39,0.23,2.79,0.59,4.17c1.51,7.47,5.42,9.58,11.81,5.7C404.8,614.83,408.84,611.3,413.98,607.57z M343.76,559.22
		c-15.07,7.77-29.66,14.67-41.22,26.2c-2.49,2.38-4.75,5.19-6.36,8.25c-5.08,8.74-4.57,17.79,0.83,26.15
		c5.27,8.32,13.46,11.71,23.18,10.85c12.74-1.03,21.76-8.42,29.56-17.64c0.82-0.95,1.06-2.54,0.96-3.77
		C348.47,592.91,346.19,576.58,343.76,559.22z"/>
	<path d="M533.31,485.13c-12.5-3.25-24.45-6.92-36.64-9.62c-9.26-1.98-18.66-1.75-27.62,2.14c-2.96,1.23-5.83,3.22-8.04,5.4
		c-6.24,6.51-6.01,14.15,1.45,19.26c7.69,5.5,16.25,9.79,24.73,14.26c15.23,7.89,31.43,14.36,45.89,23.55
		c25.63,16.15,28.93,49.44,8.04,72c-12.86,14.2-29.77,18.99-48.06,20.64c-18.53,1.64-36.3-1.55-53.73-7.77
		c-1.41-0.4-3.23-2.16-3.41-3.56c-2-11.77-3.57-23.69-5.36-36.47c3.2,1.28,5.59,2.51,8.09,3.61c16.54,7.05,33.38,13.01,51.75,12
		c7.5-0.42,14.33-3.09,19.94-7.97c9.54-8.09,9.24-19.99-1.26-26.71c-7.44-4.64-15.77-7.94-23.81-11.71
		c-14.28-6.91-29.51-12.63-42.94-20.96c-22.39-13.62-29.2-38.71-18.11-60.66c7.18-13.9,19.43-21.44,33.73-25.97
		c22.69-7.1,45.03-4.57,67.11,2.99c1.47,0.57,3.43,2.14,3.65,3.57C530.54,463.99,531.86,474.82,533.31,485.13z"/>
	<path d="M605.62,390.36c1.01,7.03,1.84,13.05,2.67,18.92c0.83,5.87,1.65,11.7,2.55,18.17c19.2-2.68,37.82-5.29,56.76-7.97
		c1.55,11.08,3.02,21.53,4.57,32.47c-18.63,2.62-37.27,5.24-56.51,7.93c0.33,2.15,0.42,3.9,0.63,5.57
		c3.95,29.15,8.05,58.21,12.31,87.31c2.57,18.44,16.61,27.83,34.54,22.58c5.87-1.77,11.81-4.18,17.23-6.97
		c5.56-2.94,10.52-6.65,16.43-10.46c1.53,10.81,3,21.25,4.31,31.85c0.14,0.94-0.7,2.32-1.47,2.92
		c-18.96,12.43-39.18,20.4-62.41,16.96c-24.73-3.76-40.69-21.14-44.71-48.67c-4.34-29.73-8.36-59.28-12.52-88.98
		c-0.28-2.02-0.55-3.99-0.96-6.63c-10.72,1.5-21.08,2.96-32.6,4.59c0.88-2.66,1.02-4.88,2.08-6.28
		c18.18-23.73,36.55-47.34,54.86-71.11C603.77,392.04,604.36,391.65,605.62,390.36z"/>
	<path d="M239.88,621.99c1.54,10.99,3.14,21.25,4.41,31.49c0.15,1.03-0.68,2.83-1.58,3.47c-18.92,12.41-39.2,20.41-62.41,16.96
		c-23.57-3.61-40.08-20.32-43.92-44.72c-4.77-31.22-8.93-62.33-13.35-93.58c-0.25-1.84-0.51-3.68-0.85-6.01
		c-10.56,1.49-20.63,2.9-32.01,4.48c0.77-2.72,0.77-5.12,1.87-6.68c18.23-23.75,36.54-47.38,54.86-70.97
		c0.27-0.38,0.75-0.54,1.69-1.35c1.71,12.29,3.38,24.04,5.1,36.47c19.1-2.69,37.74-5.31,56.82-7.99
		c1.57,11.07,3.07,21.75,4.63,32.83c-18.66,2.63-37.41,5.24-56.68,7.94c0.32,2.33,0.59,4.17,0.83,6.01
		c3.86,27.4,8.22,54.72,11.38,82.22c2.67,24.1,18.85,34.29,42.16,24.86c8.3-3.38,15.72-8.66,23.59-13.2
		C237.39,623.62,238.31,623.01,239.88,621.99z"/>
</g>
<g>
	<path class="st0" d="M846.07,352.7c2.29,16.23-8.71,30.77-25.3,33.1c-16.46,2.33-31.33-8.56-33.62-24.79
		c-2.23-15.97,9.06-30.56,25.52-32.89C829.26,325.79,843.82,336.74,846.07,352.7z M794.51,359.98
		c1.79,12.64,12.64,21.46,25.57,19.66c12.6-1.78,20.45-13.23,18.69-25.7c-1.79-12.78-12.54-21.77-25.3-19.98
		C800.74,335.78,792.73,347.38,794.51,359.98z M814.26,372.45l-6.67,0.97l-4.01-28.66c2.56-0.9,6.16-1.78,10.91-2.45
		c5.38-0.75,7.99-0.16,10.28,0.73c1.73,1.04,3.28,3.13,3.67,5.91c0.45,3.09-1.69,5.86-5.02,7.5l0.03,0.27
		c2.98,0.65,4.89,2.62,6.26,6.37c1.49,4.18,2.23,5.76,3.1,6.77l-7.22,1.02c-0.96-0.98-1.89-3.52-3.16-6.66
		c-1.02-3.13-2.94-4.29-6.63-3.75l-3.14,0.44L814.26,372.45z M812.2,356.28l3.11-0.48c3.69-0.49,6.44-2.16,6.03-5.22
		c-0.37-2.6-2.51-4.06-6.65-3.46c-1.82,0.26-3.04,0.59-3.67,0.81L812.2,356.28z"/>
</g>
</svg>
