<?xml version="1.0" encoding="utf-8"?>
<!-- Generator: Adobe Illustrator 27.1.1, SVG Export Plug-In . SVG Version: 6.00 Build 0)  -->
<svg version="1.1" id="Layer_1" xmlns="http://www.w3.org/2000/svg" xmlns:xlink="http://www.w3.org/1999/xlink" x="0px" y="0px"
	 viewBox="0 0 1000 1000" style="enable-background:new 0 0 1000 1000;" xml:space="preserve">
<style type="text/css">
	.st0{fill:#A9A9AD;}
	.st1{fill:#F2F2F2;}
	.st2{fill:#F26738;}
	.st3{fill:#F2F2F2;stroke:#F2F2F2;stroke-width:0.25;stroke-miterlimit:10;}
	.st4{fill:#231F20;}
	.st5{fill:#010101;}
</style>
<g>
	<g>
		<path class="st0" d="M987.63,488.94c0,264.71-214.56,479.28-479.25,479.28c-264.71,0-479.27-214.56-479.27-479.28
			c0-264.7,214.56-479.29,479.27-479.29C773.07,9.65,987.63,224.23,987.63,488.94z"/>
		<path class="st1" d="M943.05,488.94c0,240.06-194.62,434.67-434.67,434.67c-240.08,0-434.69-194.62-434.69-434.67
			c0-240.07,194.62-434.68,434.69-434.68C748.43,54.25,943.05,248.87,943.05,488.94z"/>
		<g>
			<polygon class="st0" points="179.16,525.79 178.96,522.84 504.32,501.22 504.54,504.17 			"/>
			<polygon class="st0" points="837.57,525.79 504.35,505.14 504.52,502.19 837.77,522.84 			"/>
			<polygon class="st0" points="504.48,503.2 504.39,500.25 890.72,490.43 890.78,493.38 			"/>
			<polygon class="st0" points="507.56,500.25 507.21,497.3 877.82,455.02 878.15,457.97 			"/>
			
				<rect x="502.66" y="455.51" transform="matrix(0.9692 -0.2464 0.2464 0.9692 -91.3745 183.8214)" class="st0" width="372.17" height="2.95"/>
			<polygon class="st0" points="508.86,503.11 507.87,500.34 873.55,370.57 874.54,373.34 			"/>
			<polygon class="st0" points="512.96,502.06 511.63,499.42 850.78,330.33 852.1,332.97 			"/>
			<polygon class="st0" points="513.06,500.03 511.52,497.52 828.06,303.86 829.6,306.37 			"/>
			
				<rect x="471.87" y="384.74" transform="matrix(0.7908 -0.612 0.612 0.7908 -99.2029 482.165)" class="st0" width="367.88" height="2.95"/>
			<polygon class="st0" points="508.4,501.79 506.37,499.68 781.61,235.24 783.66,237.36 			"/>
			<polygon class="st0" points="508.51,502.67 506.26,500.78 750.04,213.71 752.29,215.63 			"/>
			<polygon class="st0" points="506.61,498.62 504.22,496.95 723.42,187.29 725.84,188.99 			"/>
			<polygon class="st0" points="505.71,501.49 503.16,499.99 695.82,162.83 698.39,164.28 			"/>
			<polygon class="st0" points="507.76,501.31 505.05,500.16 660.37,144.29 663.06,145.46 			"/>
			<polygon class="st0" points="511.74,504.08 508.93,503.29 613.12,148.39 615.94,149.23 			"/>
			<polygon class="st0" points="509.81,498.09 506.92,497.48 586.55,112.15 589.44,112.75 			"/>
			<polygon class="st0" points="508.86,501.88 505.91,501.57 546.22,110.33 549.15,110.63 			"/>
			<polygon class="st0" points="505.91,498.8 502.96,498.76 507.87,104.56 510.82,104.6 			"/>
			<polygon class="st0" points="506.9,503.82 469.54,144.05 472.49,143.74 509.83,503.51 			"/>
			<polygon class="st0" points="507.91,506.95 427.29,120.61 430.18,120.01 510.8,506.33 			"/>
			<polygon class="st0" points="505.98,503.11 396.87,144.32 399.68,143.48 508.79,502.28 			"/>
			<polygon class="st0" points="504.06,503.25 359.55,142.49 362.28,141.39 506.79,502.15 			"/>
			<polygon class="st0" points="505.12,504.39 313.43,157.39 316,155.96 507.69,502.98 			"/>
			
				<rect x="395.32" y="152.01" transform="matrix(0.8229 -0.5681 0.5681 0.8229 -125.7079 286.5064)" class="st0" width="2.94" height="385.84"/>
			<polygon class="st0" points="510.2,505.62 268.38,221.53 270.61,219.61 512.43,503.69 			"/>
			<polygon class="st0" points="509.32,504.74 229.15,240.33 231.2,238.17 511.35,502.63 			"/>
			<polygon class="st0" points="504.52,502.89 204.69,272.87 206.5,270.51 506.31,500.56 			"/>
			<polygon class="st0" points="502.65,503.95 187.13,302.41 188.69,299.94 504.24,501.44 			"/>
			<polygon class="st0" points="509.7,503.03 158.77,334.95 160.05,332.29 510.97,500.38 			"/>
			<polygon class="st0" points="509.83,502.1 148.07,368.43 149.11,365.66 510.84,499.37 			"/>
			<polygon class="st0" points="510.97,504.13 139.4,414.69 140.08,411.8 511.66,501.26 			"/>
			<polygon class="st0" points="513.06,505.14 141.49,451.08 141.93,448.15 513.51,502.23 			"/>
			<polygon class="st0" points="510.27,507.12 135.74,488.45 135.87,485.5 510.4,504.17 			"/>
			<polygon class="st0" points="111.33,528.74 111.13,525.79 506.31,500.25 506.5,503.2 			"/>
			
				<rect x="121.9" y="533.67" transform="matrix(0.9838 -0.1792 0.1792 0.9838 -90.7888 65.0468)" class="st0" width="385.63" height="2.95"/>
			<polygon class="st0" points="155.91,604.38 155.03,601.57 502.04,496.38 502.89,499.2 			"/>
			<polygon class="st0" points="157.01,644.63 155.89,641.9 505.84,499.37 506.97,502.1 			"/>
			<polygon class="st0" points="182.7,675.05 181.31,672.46 507.67,499.42 509.06,502.06 			"/>
			<polygon class="st0" points="203.51,708.39 201.81,705.96 506.55,492.63 508.22,495.06 			"/>
			<polygon class="st0" points="234.11,736.79 232.15,734.58 506.39,489.82 508.37,492.02 			"/>
			<polygon class="st0" points="262.73,763.2 260.55,761.22 505.32,492.86 507.5,494.84 			"/>
			<polygon class="st0" points="305.08,773.9 302.71,772.14 504.22,493.96 506.61,495.72 			"/>
			<polygon class="st0" points="329.76,803.23 327.19,801.78 504.13,492.15 506.7,493.6 			"/>
			<polygon class="st0" points="366.2,811.95 363.49,810.76 504.06,495.23 506.77,496.42 			"/>
			<polygon class="st0" points="398.69,828.55 395.9,827.62 505.98,497.3 508.77,498.27 			"/>
			<polygon class="st0" points="437.07,840.17 434.18,839.55 503.97,497.48 506.86,498.09 			"/>
			<polygon class="st0" points="477.4,839.99 474.47,839.73 501.99,500.6 504.92,500.87 			"/>
			<polygon class="st0" points="504.92,857.74 502.96,497.04 505.91,497.04 507.87,857.74 			"/>
			<polygon class="st0" points="547.21,870.51 502.98,503.86 505.89,503.51 550.14,870.16 			"/>
			<polygon class="st0" points="598.35,880.55 502.01,500.12 504.88,499.37 601.21,879.8 			"/>
			
				<rect x="563.91" y="489.76" transform="matrix(0.9495 -0.3137 0.3137 0.9495 -181.1427 211.1368)" class="st0" width="2.94" height="357.16"/>
			<polygon class="st0" points="668.23,851.31 507.03,498.4 509.72,497.17 670.92,850.08 			"/>
			
				<rect x="601.27" y="472.89" transform="matrix(0.8502 -0.5265 0.5265 0.8502 -253.0433 415.0773)" class="st0" width="2.93" height="358.45"/>
			
				<rect x="614.04" y="461.23" transform="matrix(0.8013 -0.5983 0.5983 0.8013 -260.7845 495.4604)" class="st0" width="2.94" height="358.21"/>
			<polygon class="st0" points="749.09,761.27 508.26,498.8 510.44,496.77 751.27,759.24 			"/>
			
				<rect x="645.49" y="436.4" transform="matrix(0.6642 -0.7476 0.7476 0.6642 -245.6176 691.5956)" class="st0" width="2.95" height="365.55"/>
			<polygon class="st0" points="819.15,713.27 506.55,499.02 508.22,496.55 820.82,710.85 			"/>
			<polygon class="st0" points="844.84,683.86 502.74,498.09 504.15,495.5 846.25,681.31 			"/>
			<polygon class="st0" points="853.8,646.57 502.87,495.19 504.04,492.5 854.96,643.88 			"/>
			<polygon class="st0" points="862.78,609.27 506.92,494.26 507.85,491.45 863.68,606.45 			"/>
			<polygon class="st0" points="872.75,571.98 503.16,494.31 503.75,491.45 873.37,569.07 			"/>
		</g>
		<path class="st2" d="M508.37,65.39c-233.93,0-423.56,189.62-423.56,423.54c0,233.94,189.62,423.53,423.56,423.53
			c233.91,0,423.53-189.6,423.53-423.53C931.91,255.01,742.29,65.39,508.37,65.39z M508.37,823.31
			c-184.69,0-334.39-149.71-334.39-334.37c0-184.68,149.7-334.38,334.39-334.38c184.65,0,334.37,149.7,334.37,334.38
			C842.75,673.6,693.02,823.31,508.37,823.31z"/>
		<polygon class="st0" points="504.43,218.6 444.47,411.28 242.96,414.23 398.28,538.07 345.2,724.85 510.33,614.78 668.6,718.95 
			612.57,529.22 771.81,410.31 574.22,407.36 		"/>
	</g>
	<g>
		<path class="st3" d="M217.59,725.31l15.88,18.4l10.28-3.24c2.53-0.77,4.27-1.55,5.2-2.35c0.73-0.63,1.07-1.53,1.02-2.7
			c-0.05-1.17-0.99-2.97-2.83-5.39l1.31-1.13l12.94,15l-1.31,1.13c-2.05-1.67-3.61-2.57-4.66-2.67c-2.16-0.21-5.59,0.43-10.27,1.94
			l-53.65,17.08l-1.09-1.26l25.35-50.77c2.04-4.04,3.06-7.02,3.07-8.92c0-1.91-0.77-3.88-2.34-5.93l1.31-1.13l16.22,18.8l-1.31,1.13
			c-1.74-1.84-3.17-2.86-4.27-3.05c-1.1-0.19-2.05,0.05-2.83,0.73c-1.02,0.88-2.23,2.74-3.64,5.57L217.59,725.31z M215.8,728.53
			l-12.27,24.66l26.38-8.31L215.8,728.53z"/>
		<path class="st3" d="M180.49,626.31l7.91,14.78l-15.84,32.65c0.78,1.37,1.4,2.49,1.87,3.38c0.18,0.34,0.37,0.72,0.57,1.13
			c0.2,0.41,0.42,0.84,0.65,1.28l16.1-8.62c3.49-1.87,5.45-3.4,5.9-4.6c0.62-1.68,0.38-3.56-0.72-5.62l-1.17-2.18l1.52-0.82
			l12.72,23.76l-1.52,0.82l-1.11-2.08c-1.25-2.33-2.91-3.6-4.98-3.8c-1.15-0.12-3.31,0.66-6.45,2.34l-35.8,19.17
			c-3.49,1.87-5.45,3.4-5.9,4.6c-0.64,1.74-0.4,3.65,0.73,5.75l1.12,2.08l-1.52,0.82l-10.82-20.21c-3.15-5.89-5.05-10.46-5.68-13.72
			c-0.63-3.26-0.32-6.47,0.94-9.65c1.26-3.18,3.48-5.62,6.66-7.32c3.42-1.83,6.98-2.31,10.67-1.43c3.69,0.88,7.31,3.37,10.86,7.48
			l9.78-19.93c2.24-4.6,3.46-8.16,3.66-10.68c0.2-2.52-0.36-5.37-1.67-8.55L180.49,626.31z M173.07,680.91
			c-0.27-0.51-0.5-0.96-0.7-1.36c-0.19-0.4-0.35-0.72-0.48-0.95c-2.83-5.28-6.11-8.65-9.86-10.11s-7.37-1.24-10.9,0.64
			c-3.45,1.85-5.68,4.44-6.69,7.76c-1.01,3.33-0.55,6.78,1.37,10.37c0.83,1.56,2.23,3.55,4.19,5.99L173.07,680.91z"/>
		<path class="st3" d="M100.98,581.26l13.96-4.81l0.5,1.71c-2.38,1.02-4.02,1.98-4.92,2.88c-1.46,1.43-2.37,3.03-2.74,4.79
			c-0.36,1.77-0.18,3.89,0.54,6.35l2.49,8.51l46.1-13.5c3.69-1.08,5.87-2.16,6.55-3.24c0.93-1.47,1.05-3.39,0.36-5.75l-0.62-2.1
			l1.66-0.49l7.5,25.59l-1.66,0.49l-0.63-2.15c-0.74-2.54-2.05-4.12-3.91-4.74c-1.1-0.36-3.35-0.04-6.74,0.95l-46.1,13.5l2.12,7.24
			c0.82,2.8,1.61,4.73,2.36,5.79c1.01,1.39,2.47,2.4,4.4,3.03c1.93,0.64,4.28,0.65,7.06,0.03l0.5,1.71l-14.36,3.42L100.98,581.26z"
			/>
		<path class="st3" d="M153.86,520.28l1.71-0.21l3.32,26.75l-1.71,0.21l-0.28-2.23c-0.32-2.55-1.29-4.33-2.92-5.33
			c-1.08-0.6-3.49-0.67-7.22-0.21l-40.3,5c-3.16,0.39-5.24,0.84-6.22,1.35c-0.72,0.4-1.29,1.11-1.71,2.13
			c-0.59,1.47-0.8,2.92-0.62,4.37l0.28,2.23l-1.71,0.21l-3.32-26.75l1.72-0.21l0.28,2.29c0.31,2.51,1.3,4.27,2.97,5.26
			c1.05,0.64,3.46,0.73,7.23,0.26l40.3-5c3.16-0.39,5.22-0.84,6.16-1.35c0.73-0.4,1.31-1.13,1.76-2.19
			c0.56-1.42,0.75-2.86,0.57-4.31L153.86,520.28z"/>
		<path class="st3" d="M90.86,461.06l21.76,0.61l-0.05,1.73c-4.2,0.42-7.55,1.32-10.04,2.69c-2.5,1.37-4.51,3.37-6.04,6
			c-1.53,2.63-2.34,5.36-2.42,8.2c-0.09,3.19,0.82,5.86,2.71,8.03c1.9,2.17,4.1,3.28,6.59,3.35c1.92,0.05,3.68-0.57,5.3-1.87
			c2.39-1.85,5.61-6.31,9.65-13.39c3.31-5.79,5.84-9.73,7.59-11.83c1.75-2.1,3.78-3.7,6.1-4.78c2.32-1.09,4.72-1.6,7.22-1.53
			c4.76,0.13,8.82,2.09,12.17,5.87c3.35,3.78,4.95,8.57,4.78,14.37c-0.05,1.84-0.24,3.57-0.55,5.17c-0.18,0.95-0.8,2.93-1.86,5.91
			c-1.06,2.99-1.61,4.88-1.63,5.69c-0.02,0.77,0.19,1.38,0.64,1.83c0.45,0.45,1.4,0.82,2.85,1.09l-0.05,1.67l-21.53-0.6l0.05-1.67
			c4.51-0.68,7.91-1.67,10.2-2.97s4.2-3.33,5.76-6.09c1.56-2.76,2.38-5.81,2.47-9.15c0.11-3.84-0.82-6.91-2.8-9.21
			c-1.97-2.3-4.36-3.49-7.16-3.57c-1.53-0.04-3.1,0.34-4.7,1.14c-1.6,0.8-3.09,2.08-4.49,3.85c-0.96,1.17-3.01,4.39-6.18,9.68
			c-3.16,5.29-5.68,9.05-7.55,11.28c-1.87,2.23-3.9,3.91-6.1,5.02c-2.2,1.11-4.59,1.63-7.16,1.56c-4.53-0.13-8.38-1.96-11.54-5.51
			c-3.17-3.55-4.67-8.01-4.52-13.38c0.09-3.34,1.02-6.85,2.77-10.52c0.82-1.71,1.23-2.92,1.25-3.65c0.02-0.77-0.2-1.42-0.67-1.95
			c-0.47-0.53-1.42-0.97-2.87-1.32L90.86,461.06z"/>
		<path class="st3" d="M145.69,394.95l-5.62,23.65l8.65,6.44c2.1,1.61,3.76,2.55,4.95,2.83c0.93,0.22,1.86-0.03,2.79-0.76
			c0.92-0.73,1.83-2.55,2.72-5.45l1.68,0.4l-4.58,19.28l-1.68-0.4c0.16-2.65-0.03-4.43-0.56-5.34c-1.09-1.88-3.62-4.27-7.59-7.19
			l-45.26-33.49l0.39-1.62l56-9.19c4.47-0.71,7.48-1.63,9.03-2.74s2.69-2.9,3.44-5.37l1.68,0.4l-5.74,24.15l-1.68-0.4
			c0.47-2.49,0.47-4.24-0.03-5.25c-0.49-1-1.24-1.63-2.25-1.87c-1.31-0.31-3.52-0.21-6.65,0.32L145.69,394.95z M142.04,395.38
			l-27.18,4.5l22.18,16.52L142.04,395.38z"/>
		<path class="st3" d="M119.07,337.52l7.64-15.31l59.36-13.31l-32.42-16.18c-3.47-1.73-5.83-2.42-7.09-2.06
			c-1.67,0.41-3.06,1.74-4.17,3.97l-0.98,1.96l-1.55-0.77l9.77-19.58l1.55,0.77l-0.98,1.96c-1.2,2.41-1.33,4.47-0.38,6.18
			c0.6,1.03,2.48,2.33,5.64,3.91l47.41,23.66l-0.75,1.49l-63.82,14.5l34.63,17.28c3.44,1.71,5.77,2.41,7.01,2.08
			c1.68-0.45,3.07-1.77,4.17-3.97l1-2.01l1.55,0.77l-9.77,19.58l-1.55-0.77l0.95-1.91c1.22-2.44,1.34-4.5,0.38-6.18
			c-0.55-1.05-2.41-2.36-5.57-3.94l-39.12-19.52c-2.73,0.66-4.61,1.25-5.63,1.8c-1.02,0.54-2.22,1.5-3.59,2.87
			c-0.63,0.67-1.36,1.83-2.19,3.48L119.07,337.52z"/>
		<path class="st3" d="M261.69,237.85l-54.03-21.75l28.9,30.54c2.64,2.79,4.59,4.24,5.87,4.36c1.71,0.18,3.47-0.58,5.28-2.3
			l1.59-1.5l1.19,1.25l-15.9,15.04l-1.19-1.26l1.63-1.54c1.92-1.82,2.74-3.7,2.44-5.64c-0.16-1.17-1.45-3.04-3.88-5.61l-28.22-29.83
			c-1.93-2.04-3.54-3.29-4.83-3.76c-0.91-0.35-2.01-0.35-3.28,0.01c-1.27,0.36-2.84,1.42-4.71,3.19l-1.19-1.25l12.93-12.23
			l50.45,20.06l-17.57-51.17l12.93-12.23l1.19,1.25l-1.59,1.51c-1.95,1.85-2.78,3.74-2.48,5.67c0.21,1.18,1.53,3.05,3.96,5.61
			l28.22,29.83c2.64,2.79,4.6,4.24,5.87,4.36c1.73,0.16,3.49-0.61,5.28-2.3l1.59-1.5l1.19,1.25l-19.37,18.33l-1.19-1.25l1.59-1.51
			c1.95-1.85,2.77-3.73,2.44-5.64c-0.16-1.17-1.45-3.04-3.88-5.61l-28.89-30.54l18.76,55.12L261.69,237.85z"/>
		<path class="st3" d="M332.4,161l-21.24,11.82l1.09,10.73c0.24,2.64,0.65,4.49,1.25,5.56c0.47,0.84,1.28,1.35,2.44,1.54
			c1.16,0.19,3.11-0.37,5.86-1.68l0.84,1.51l-17.31,9.64l-0.84-1.51c2.06-1.67,3.24-3.01,3.56-4.03c0.65-2.07,0.71-5.56,0.18-10.45
			l-5.86-56l1.46-0.81l44.59,35.11c3.55,2.82,6.25,4.42,8.12,4.81c1.87,0.39,3.96,0.03,6.28-1.09l0.84,1.51l-21.69,12.07l-0.84-1.51
			c2.16-1.33,3.44-2.52,3.85-3.56c0.41-1.04,0.36-2.01-0.14-2.92c-0.65-1.17-2.23-2.74-4.72-4.69L332.4,161z M329.61,158.59
			l-21.66-17.01l2.79,27.52L329.61,158.59z"/>
		<path class="st3" d="M436.89,144.84l-16.08,4.73l-28.73-22.17c-1.5,0.48-2.73,0.86-3.69,1.14c-0.37,0.11-0.78,0.22-1.22,0.33
			c-0.45,0.11-0.91,0.24-1.39,0.38l5.15,17.52c1.12,3.8,2.22,6.03,3.3,6.72c1.52,0.95,3.41,1.1,5.65,0.44l2.38-0.7l0.49,1.66
			l-25.86,7.61l-0.49-1.66l2.27-0.67c2.54-0.75,4.12-2.11,4.74-4.09c0.35-1.11,0.03-3.37-0.98-6.8l-11.46-38.95
			c-1.11-3.79-2.22-6.03-3.3-6.72c-1.57-0.98-3.5-1.13-5.78-0.46l-2.27,0.67l-0.49-1.66l21.99-6.47c6.41-1.88,11.27-2.8,14.59-2.76
			s6.4,1.01,9.26,2.89s4.79,4.55,5.81,8.02c1.1,3.72,0.84,7.3-0.78,10.74c-1.61,3.43-4.79,6.47-9.54,9.11l17.52,13.64
			c4.04,3.13,7.28,5.05,9.71,5.76c2.43,0.71,5.33,0.74,8.71,0.11L436.89,144.84z M384.95,126.43c0.55-0.16,1.04-0.3,1.47-0.4
			c0.43-0.1,0.77-0.2,1.03-0.27c5.75-1.69,9.72-4.22,11.91-7.58c2.19-3.37,2.72-6.96,1.6-10.8c-1.11-3.76-3.18-6.47-6.23-8.13
			c-3.05-1.67-6.53-1.92-10.43-0.77c-1.7,0.5-3.93,1.46-6.72,2.88L384.95,126.43z"/>
		<path class="st3" d="M486.12,140.29l-26.55-51.84l1.8,42.01c0.16,3.84,0.69,6.22,1.57,7.14c1.17,1.26,3,1.83,5.49,1.72l2.19-0.09
			l0.07,1.73l-21.87,0.93l-0.07-1.73l2.24-0.09c2.65-0.11,4.49-1,5.54-2.66c0.65-0.99,0.9-3.25,0.75-6.78l-1.75-41.03
			c-0.12-2.8-0.51-4.8-1.18-6c-0.46-0.86-1.29-1.58-2.48-2.14c-1.2-0.56-3.08-0.79-5.65-0.68l-0.07-1.73l17.78-0.76l24.95,48.22
			l20.28-50.16l17.78-0.76l0.08,1.73l-2.19,0.09c-2.69,0.11-4.55,1-5.59,2.66c-0.61,1.03-0.84,3.3-0.69,6.83l1.76,41.03
			c0.16,3.84,0.69,6.22,1.57,7.14c1.21,1.26,3.04,1.83,5.49,1.73l2.19-0.09l0.08,1.73l-26.64,1.14l-0.08-1.73l2.19-0.09
			c2.69-0.11,4.53-1,5.54-2.66c0.65-0.99,0.9-3.25,0.75-6.78l-1.8-42.01l-21.96,53.92L486.12,140.29z"/>
		<path class="st3" d="M589.84,128.51l-23.79-4.97l-6.2,8.83c-1.55,2.15-2.45,3.82-2.7,5.03c-0.2,0.94,0.08,1.86,0.83,2.76
			c0.75,0.9,2.6,1.76,5.52,2.57l-0.35,1.69l-19.39-4.05l0.35-1.69c2.65,0.08,4.42-0.15,5.33-0.71c1.85-1.14,4.17-3.74,6.98-7.78
			l32.24-46.16l1.64,0.34l10.72,55.73c0.84,4.45,1.83,7.43,2.98,8.95c1.15,1.51,2.97,2.61,5.46,3.29l-0.35,1.69l-24.3-5.08
			l0.35-1.69c2.5,0.41,4.25,0.35,5.24-0.17c0.99-0.52,1.59-1.28,1.8-2.3c0.27-1.32,0.11-3.53-0.5-6.63L589.84,128.51z
			 M589.31,124.87l-5.24-27.04l-15.91,22.63L589.31,124.87z"/>
		<path class="st3" d="M677.73,164.66l1.28,0.95l-11.9,13.35l-44.43-19.86l0.71-1.58l2.15,0.96c2.42,1.08,4.51,1.07,6.26-0.04
			c1-0.64,2.23-2.6,3.69-5.86l16.55-37.02c1.61-3.61,2.21-6.03,1.8-7.27c-0.52-1.75-1.87-3.11-4.04-4.08l-2.16-0.96l0.71-1.58
			l25.98,11.61l-0.71,1.58c-3.03-1.4-5.3-2.07-6.79-2.03c-1.5,0.05-2.66,0.43-3.51,1.15c-0.85,0.72-2.03,2.77-3.55,6.17
			l-16.13,36.07c-1.05,2.35-1.56,4.06-1.53,5.12c0.08,0.75,0.41,1.42,0.99,2.02c0.57,0.59,2.72,1.72,6.44,3.38l4.15,1.86
			c4.42,1.98,7.66,3.03,9.72,3.18s4.19-0.28,6.4-1.27C672.02,169.53,674.66,167.57,677.73,164.66z"/>
		<path class="st3" d="M731.58,196.09l-19.59-14.39l-9.3,5.46c-2.3,1.31-3.81,2.46-4.54,3.45c-0.57,0.77-0.7,1.73-0.39,2.86
			s1.63,2.68,3.96,4.63l-1.02,1.39l-15.97-11.73l1.02-1.39c2.38,1.17,4.09,1.69,5.14,1.56c2.15-0.28,5.35-1.67,9.58-4.18
			l48.48-28.63l1.35,0.99l-13.36,55.15c-1.09,4.4-1.42,7.52-1,9.38c0.42,1.86,1.62,3.61,3.61,5.26l-1.02,1.39l-20-14.7l1.02-1.39
			c2.11,1.41,3.72,2.08,4.84,2.02c1.12-0.06,1.98-0.51,2.6-1.35c0.8-1.08,1.56-3.16,2.3-6.24L731.58,196.09z M732.6,192.55
			l6.45-26.78l-23.86,13.99L732.6,192.55z"/>
		<path class="st3" d="M748.89,236.97l1.31-1.13l1.54,1.79c1.73,2.01,3.59,2.88,5.6,2.63c1.24-0.15,3.19-1.38,5.87-3.68L794,210.1
			c3-2.58,4.59-4.5,4.76-5.77c0.25-1.83-0.41-3.65-1.96-5.46l-1.54-1.79l1.31-1.13l16.71,19.43c6.11,7.1,9.95,13.21,11.51,18.33
			c1.56,5.11,1.43,10.43-0.38,15.94c-1.82,5.51-5.2,10.4-10.15,14.66c-6.61,5.68-13.88,8.42-21.81,8.2
			c-8.86-0.23-17.27-4.98-25.23-14.23L748.89,236.97z M764.06,247.62c1.88,3.55,3.69,6.32,5.42,8.33c4.68,5.44,10.48,8.31,17.39,8.6
			c6.91,0.29,13.62-2.37,20.15-7.98c6.61-5.68,10.27-11.94,10.97-18.78c0.7-6.83-1.36-13.06-6.19-18.68
			c-1.83-2.13-4.23-4.24-7.2-6.34L764.06,247.62z"/>
		<path class="st3" d="M860.34,286.57l-21.81,11.86l6.57,12.09c1.72,3.17,3.34,5.02,4.85,5.56c2.02,0.74,4.64,0.34,7.87-1.2
			l0.82,1.52l-19.23,10.45l-0.82-1.52c2.5-1.84,4.01-3.16,4.53-3.97c0.72-1.01,1.05-2.21,0.98-3.62c-0.07-1.41-0.73-3.27-1.99-5.6
			l-6.57-12.1l-18.22,9.9c-2.46,1.34-3.9,2.25-4.31,2.74c-0.41,0.49-0.62,1.09-0.62,1.81c0,0.72,0.41,1.84,1.24,3.36l5.09,9.36
			c1.69,3.1,3.12,5.25,4.32,6.44c1.19,1.19,2.78,2.09,4.78,2.71c2.6,0.77,6.08,1.11,10.45,1.01l0.88,1.62l-16.45,2.78l-23.13-42.56
			l1.52-0.83l1.04,1.92c0.72,1.32,1.7,2.4,2.95,3.25c0.9,0.61,1.87,0.83,2.92,0.67c1.05-0.16,2.91-0.96,5.58-2.41l35.93-19.53
			c3.47-1.89,5.44-3.42,5.9-4.58c0.55-1.56,0.2-3.49-1.05-5.79l-1.04-1.92l1.52-0.83l23.13,42.56l-11.82,7.21l-0.85-1.57
			c2.62-2.17,4.29-3.89,4.99-5.17c0.7-1.28,0.97-2.75,0.82-4.41c-0.2-1.33-1.04-3.37-2.53-6.1L860.34,286.57z"/>
		<path class="st3" d="M849.77,430.55l48.39-32.41l-41.51,6.68c-3.79,0.61-6.09,1.41-6.91,2.4c-1.11,1.31-1.47,3.19-1.07,5.66
			l0.35,2.16l-1.71,0.27l-3.48-21.61l1.71-0.27l0.36,2.22c0.42,2.62,1.52,4.35,3.28,5.19c1.06,0.53,3.33,0.51,6.82-0.05l40.54-6.53
			c2.77-0.45,4.71-1.07,5.82-1.87c0.8-0.56,1.42-1.46,1.84-2.72c0.42-1.26,0.43-3.15,0.02-5.69l1.7-0.27l2.83,17.57l-44.98,30.41
			l52.18,14.29l2.83,17.57l-1.71,0.27l-0.35-2.16c-0.43-2.65-1.52-4.4-3.29-5.24c-1.09-0.49-3.38-0.45-6.87,0.11l-40.54,6.53
			c-3.79,0.61-6.09,1.41-6.91,2.4c-1.11,1.35-1.46,3.23-1.07,5.66l0.35,2.16l-1.71,0.27l-4.24-26.33l1.71-0.27l0.35,2.16
			c0.43,2.65,1.52,4.38,3.29,5.19c1.06,0.53,3.33,0.51,6.82-0.05l41.51-6.69l-56.12-15.52L849.77,430.55z"/>
		<path class="st3" d="M873.52,532.24l2.15-24.21l-9.49-5.12c-2.31-1.29-4.08-1.98-5.31-2.09c-0.96-0.08-1.84,0.3-2.65,1.15
			c-0.81,0.85-1.44,2.78-1.9,5.79l-1.72-0.15l1.75-19.74l1.72,0.15c0.23,2.64,0.67,4.38,1.33,5.21c1.35,1.7,4.2,3.71,8.54,6.02
			l49.62,26.61l-0.15,1.67l-54.09,17.17c-4.32,1.35-7.17,2.69-8.54,4.01c-1.37,1.33-2.25,3.26-2.63,5.81l-1.72-0.15l2.2-24.73
			l1.72,0.15c-0.11,2.53,0.15,4.26,0.78,5.19c0.63,0.92,1.46,1.43,2.49,1.52c1.34,0.12,3.52-0.31,6.53-1.27L873.52,532.24z
			 M877.07,531.28l26.24-8.37l-24.33-13.15L877.07,531.28z"/>
		<path class="st3" d="M872.28,604.62l-29.12,14.8c-4.8,2.43-8.27,4.7-10.4,6.83c-2.14,2.13-3.71,4.44-4.73,6.93l-1.64-0.54
			l9.34-28.4l1.64,0.54c-0.56,1.71-0.69,3.04-0.37,3.97s0.84,1.52,1.57,1.76c0.69,0.23,1.36,0.3,1.99,0.2
			c0.64-0.09,1.98-0.67,4.03-1.74l27.19-13.92l-19.26-6.33c-3.03-1-5.08-1.45-6.16-1.36c-0.83,0.05-1.66,0.44-2.51,1.18
			c-1.11,1.05-1.9,2.29-2.37,3.71l-0.67,2.02l-1.64-0.54l8.38-25.5l1.64,0.54l-0.7,2.14c-0.82,2.48-0.69,4.5,0.37,6.06
			c0.71,1.04,2.85,2.15,6.43,3.32l38.58,12.68c3.03,1,5.12,1.46,6.27,1.39c0.79-0.06,1.59-0.47,2.4-1.21
			c1.15-1.04,1.96-2.27,2.43-3.69l0.7-2.13l1.64,0.54l-8.38,25.5l-1.64-0.54l0.67-2.02c0.46-1.39,0.55-2.85,0.29-4.39
			c-0.17-1.07-0.67-1.93-1.49-2.58c-0.82-0.65-2.7-1.46-5.66-2.44l-18.27-6.01c0.39,0.77,1.61,3.4,3.66,7.87
			c5.12,11.34,8.72,18.37,10.78,21.07c0.9,1.19,1.79,1.92,2.67,2.21c0.69,0.23,1.4,0.11,2.11-0.34s1.31-1.41,1.79-2.87l0.45-1.37
			l1.64,0.54l-7.21,21.94l-1.64-0.54c0.38-1.29,0.58-2.52,0.6-3.68c0.02-1.17-0.18-2.67-0.58-4.5c-0.41-1.83-1.29-4.2-2.63-7.11
			c-0.37-0.85-2.39-4.83-6.08-11.94L872.28,604.62z"/>
		<path class="st3" d="M862.55,689.36l-21.4-12.58l-6.98,11.87c-1.83,3.11-2.58,5.45-2.26,7.02c0.41,2.11,2.1,4.15,5.08,6.13
			l-0.88,1.49l-18.87-11.09l0.88-1.49c2.86,1.19,4.77,1.8,5.74,1.83c1.23,0.1,2.44-0.24,3.61-1.02c1.17-0.78,2.43-2.31,3.77-4.6
			l6.98-11.87l-17.88-10.51c-2.42-1.42-3.94-2.18-4.57-2.29c-0.63-0.1-1.25,0.03-1.87,0.4c-0.62,0.37-1.37,1.3-2.24,2.79l-5.4,9.18
			c-1.79,3.05-2.89,5.38-3.29,7.02c-0.4,1.63-0.36,3.46,0.14,5.49c0.68,2.63,2.19,5.79,4.52,9.47l-0.93,1.59l-10.86-12.66
			l24.55-41.76l1.49,0.88l-1.11,1.89c-0.76,1.29-1.18,2.69-1.27,4.2c-0.06,1.08,0.25,2.03,0.93,2.85c0.68,0.82,2.32,2,4.94,3.54
			l35.25,20.73c3.41,2,5.73,2.9,6.97,2.69c1.63-0.34,3.1-1.63,4.42-3.88l1.11-1.89l1.49,0.88l-24.55,41.76l-12.27-6.41l0.9-1.54
			c3.21,1.13,5.54,1.67,7,1.61c1.46-0.06,2.86-0.58,4.2-1.57c1.04-0.86,2.35-2.63,3.92-5.31L862.55,689.36z"/>
		<path class="st3" d="M742.31,749.05l11.26-12.42l36.08,3.94c1.03-1.19,1.88-2.16,2.55-2.9c0.26-0.28,0.55-0.59,0.87-0.92
			c0.32-0.33,0.65-0.68,0.99-1.05l-13.53-12.26c-2.93-2.66-5.03-3.99-6.31-4.01c-1.8-0.02-3.48,0.84-5.05,2.57l-1.66,1.83
			l-1.28-1.16l18.1-19.97l1.28,1.16l-1.59,1.75c-1.78,1.96-2.42,3.95-1.91,5.97c0.27,1.13,1.73,2.89,4.38,5.29l30.09,27.27
			c2.93,2.66,5.03,3.99,6.31,4.01c1.85,0.02,3.57-0.86,5.17-2.62l1.59-1.75l1.28,1.16l-15.4,16.98c-4.49,4.95-8.16,8.27-11.01,9.96
			c-2.85,1.69-5.99,2.47-9.4,2.36c-3.42-0.12-6.46-1.39-9.14-3.81c-2.87-2.61-4.52-5.8-4.93-9.57c-0.41-3.77,0.72-8.02,3.39-12.75
			l-22.06-2.51c-5.08-0.57-8.85-0.52-11.29,0.15c-2.44,0.66-4.94,2.15-7.49,4.44L742.31,749.05z M796.23,737.68
			c-0.39,0.43-0.74,0.8-1.05,1.11c-0.31,0.31-0.56,0.57-0.74,0.77c-4.02,4.44-6.09,8.66-6.21,12.68c-0.12,4.01,1.31,7.36,4.26,10.05
			c2.9,2.63,6.09,3.86,9.56,3.69c3.47-0.17,6.57-1.76,9.31-4.78c1.19-1.31,2.6-3.29,4.23-5.96L796.23,737.68z"/>
	</g>
	<g>
		<path class="st4" d="M283.06,319.95l-35.74-31.32l10.15-11.59c3.97-4.53,8.62-6.98,13.94-7.34c5.32-0.36,10.2,1.41,14.66,5.31
			l5.42,4.75c4.47,3.91,6.86,8.52,7.19,13.83c0.33,5.31-1.5,10.23-5.47,14.76L283.06,319.95z M257.34,286.86l26.17,22.93l4.78-5.45
			c2.6-2.96,3.67-6.13,3.23-9.52c-0.45-3.39-2.2-6.42-5.25-9.1l-5.47-4.79c-3.02-2.65-6.24-3.97-9.66-3.97
			c-3.41,0-6.42,1.49-9.01,4.45L257.34,286.86z"/>
		<path class="st4" d="M326.16,276.07c-0.8-0.49-1.55-0.99-2.24-1.51c-0.7-0.52-1.35-1.08-1.96-1.67c0.27,1.96,0.1,3.95-0.5,5.96
			c-0.6,2.01-1.73,3.74-3.39,5.18c-2.77,2.42-5.52,3.56-8.25,3.42c-2.73-0.13-5.18-1.45-7.35-3.94c-2.24-2.58-2.97-5.47-2.19-8.68
			c0.78-3.21,3.02-6.42,6.71-9.64l4.65-4.05l-2.04-2.34c-1.21-1.39-2.58-2.13-4.08-2.2c-1.51-0.07-3.02,0.56-4.55,1.88
			c-1.36,1.19-2.16,2.46-2.39,3.81s0.1,2.55,1,3.58l-5.76,5.02l-0.15-0.13c-1.94-2-2.63-4.68-2.05-8.04
			c0.58-3.36,2.47-6.44,5.67-9.22c3.1-2.7,6.29-4.09,9.56-4.18c3.27-0.08,6.2,1.35,8.77,4.3l10.31,11.84
			c0.96,1.1,1.95,2.09,2.98,2.97c1.03,0.88,2.13,1.66,3.3,2.34L326.16,276.07z M315.1,278.17c1.51-1.32,2.54-2.87,3.09-4.68
			c0.55-1.81,0.6-3.36,0.15-4.68l-3.43-3.94l-4.75,4.14c-1.74,1.52-2.73,3.13-2.96,4.85c-0.23,1.72,0.16,3.16,1.17,4.33
			c0.89,1.02,1.92,1.54,3.11,1.56C312.66,279.77,313.87,279.25,315.1,278.17z"/>
		<path class="st4" d="M343.6,262.86l-6.43,4.65l-29.85-41.25l6.43-4.65L343.6,262.86z"/>
		<path class="st4" d="M362.7,251.4c-4.3,2.56-8.56,3.2-12.79,1.91c-4.23-1.29-7.66-4.14-10.29-8.55l-0.67-1.12
			c-2.63-4.41-3.55-8.82-2.75-13.24s3.11-7.75,6.93-10.01c4.09-2.44,7.97-3.07,11.62-1.89c3.65,1.18,6.72,3.85,9.21,8.02l2.39,4.01
			l-18.92,11.28l0.03,0.17c1.55,2.34,3.42,3.88,5.63,4.63c2.21,0.75,4.46,0.44,6.76-0.93c1.83-1.09,3.27-2.25,4.31-3.48
			c1.04-1.23,1.92-2.63,2.63-4.19l4.85,3.16c-0.54,1.69-1.54,3.45-3.01,5.27C367.17,248.26,365.19,249.92,362.7,251.4z
			 M346.41,225.85c-1.68,1-2.67,2.5-2.95,4.48c-0.29,1.98,0.05,4.08,1.02,6.29l0.14,0.11l12.03-7.17l-0.42-0.7
			c-1.15-1.92-2.57-3.2-4.28-3.83C350.23,224.39,348.39,224.67,346.41,225.85z"/>
		<path class="st4" d="M370.7,206.01l2.1,4.12c0.45-1.98,1.32-3.72,2.6-5.21c1.28-1.49,2.98-2.66,5.1-3.51
			c2.14-0.85,4.17-1.1,6.1-0.74c1.92,0.36,3.66,1.35,5.2,2.99c0.29-2.22,1.05-4.18,2.3-5.87c1.25-1.69,2.98-2.98,5.21-3.86
			c3.29-1.31,6.35-1.22,9.16,0.27c2.81,1.49,5.13,4.53,6.95,9.12l7.87,19.77l-7.37,2.94l-7.89-19.8c-1.11-2.79-2.37-4.56-3.78-5.31
			c-1.41-0.75-3.08-0.74-5,0.02c-1.58,0.63-2.74,1.58-3.5,2.87c-0.75,1.28-1.09,2.74-1,4.37c0.12,0.3,0.24,0.56,0.34,0.78
			c0.11,0.22,0.2,0.42,0.28,0.63l8.47,21.26l-7.37,2.94l-7.89-19.8c-1.07-2.69-2.33-4.43-3.78-5.22c-1.45-0.79-3.13-0.81-5.03-0.05
			c-1.5,0.6-2.65,1.39-3.46,2.38c-0.81,0.99-1.31,2.13-1.5,3.42l9.59,24.08l-7.37,2.94l-13.07-32.81L370.7,206.01z"/>
		<path class="st4" d="M449.4,217.74c-0.47-0.81-0.89-1.61-1.25-2.4c-0.36-0.79-0.67-1.59-0.92-2.4c-0.71,1.85-1.8,3.51-3.29,4.99
			c-1.49,1.48-3.31,2.46-5.45,2.93c-3.59,0.8-6.55,0.48-8.88-0.94c-2.33-1.42-3.86-3.75-4.57-6.98c-0.74-3.33,0-6.22,2.22-8.67
			c2.22-2.44,5.72-4.19,10.5-5.25l6.02-1.34l-0.67-3.03c-0.4-1.81-1.24-3.1-2.53-3.89s-2.92-0.96-4.9-0.52
			c-1.76,0.39-3.07,1.13-3.92,2.21s-1.13,2.29-0.83,3.63l-7.46,1.66l-0.07-0.19c-0.75-2.69-0.07-5.37,2.04-8.04
			c2.11-2.68,5.24-4.47,9.39-5.39c4.02-0.89,7.48-0.59,10.4,0.9c2.92,1.49,4.8,4.15,5.65,7.98l3.4,15.33
			c0.32,1.42,0.71,2.77,1.2,4.03c0.48,1.26,1.07,2.48,1.78,3.63L449.4,217.74z M438.68,214.3c1.95-0.43,3.6-1.31,4.95-2.63
			c1.34-1.32,2.13-2.67,2.36-4.04l-1.13-5.1l-6.15,1.36c-2.25,0.5-3.89,1.45-4.92,2.85s-1.37,2.85-1.04,4.36
			c0.29,1.32,0.95,2.27,1.99,2.85C435.77,214.54,437.08,214.65,438.68,214.3z"/>
		<path class="st4" d="M465.44,170.88l-7.87,1.01l-0.88-6.9l7.87-1.01L465.44,170.88z M471.01,214.49l-7.87,1.01l-4.48-35.03
			l7.87-1.01L471.01,214.49z"/>
		<path class="st4" d="M484.01,177.87l0.63,5.07c1.09-1.84,2.49-3.3,4.21-4.38c1.72-1.07,3.67-1.65,5.87-1.72
			c3.67-0.13,6.58,0.89,8.71,3.04c2.13,2.16,3.28,5.6,3.44,10.31l0.77,22.18l-7.93,0.28l-0.77-22.11c-0.09-2.65-0.71-4.52-1.84-5.6
			c-1.13-1.08-2.82-1.58-5.06-1.51c-1.54,0.05-2.91,0.44-4.11,1.17c-1.19,0.73-2.16,1.7-2.9,2.93l0.89,25.61l-7.93,0.28l-1.23-35.29
			L484.01,177.87z"/>
		<path class="st4" d="M566.68,203.37l0.04,0.2c-0.66,4.76-2.8,8.39-6.44,10.87c-3.64,2.48-8.16,3.3-13.58,2.45
			c-5.48-0.86-9.65-3.4-12.5-7.62c-2.85-4.22-3.83-9.2-2.94-14.94l1.4-8.93c0.89-5.72,3.32-10.17,7.29-13.35
			c3.97-3.18,8.66-4.35,14.08-3.5c5.55,0.87,9.69,3.01,12.43,6.42c2.74,3.41,3.68,7.57,2.82,12.48l-0.09,0.18l-7.58-1.18
			c0.49-3.16,0.02-5.76-1.41-7.79c-1.43-2.03-3.82-3.3-7.15-3.83c-3.2-0.5-5.94,0.37-8.22,2.61c-2.28,2.24-3.72,5.27-4.31,9.1
			l-1.4,8.99c-0.6,3.87-0.14,7.22,1.39,10.05c1.53,2.83,3.92,4.51,7.19,5.02c3.25,0.51,5.84,0.02,7.79-1.45
			c1.95-1.47,3.17-3.8,3.67-6.97L566.68,203.37z"/>
		<path class="st4" d="M590.89,221.52c-1.6,1.47-3.36,2.45-5.28,2.93c-1.92,0.48-3.94,0.4-6.06-0.23c-3.63-1.09-6.11-3.1-7.46-6.02
			c-1.35-2.93-1.29-6.83,0.17-11.71l6.07-20.23l7.57,2.27l-6.09,20.29c-0.89,2.96-1.03,5.18-0.43,6.65c0.6,1.48,1.87,2.5,3.81,3.09
			c1.83,0.55,3.47,0.68,4.91,0.4c1.44-0.28,2.7-0.94,3.78-1.98l7.34-24.45l7.6,2.28l-10.15,33.83l-6.63-1.99L590.89,221.52z"/>
		<path class="st4" d="M623.89,201.25l-1.64,4.32c1.77-1,3.64-1.53,5.61-1.58c1.97-0.06,3.97,0.42,6.03,1.42
			c2.07,1.01,3.62,2.35,4.65,4.02c1.03,1.66,1.45,3.62,1.28,5.86c1.84-1.28,3.8-2.03,5.89-2.24c2.09-0.21,4.21,0.21,6.36,1.26
			c3.19,1.56,5.17,3.88,5.95,6.96c0.78,3.08,0.09,6.84-2.08,11.28l-9.35,19.12l-7.13-3.48l9.36-19.15c1.32-2.7,1.78-4.82,1.39-6.37
			c-0.39-1.55-1.52-2.78-3.38-3.69c-1.52-0.74-3.02-0.97-4.47-0.66c-1.46,0.3-2.76,1.04-3.91,2.19c-0.14,0.29-0.26,0.55-0.34,0.78
			c-0.09,0.23-0.18,0.43-0.27,0.63l-10.05,20.55l-7.12-3.48l9.36-19.15c1.27-2.6,1.71-4.7,1.32-6.31s-1.5-2.86-3.34-3.76
			c-1.45-0.71-2.81-1.03-4.09-0.96c-1.28,0.06-2.46,0.46-3.54,1.19l-11.39,23.28l-7.12-3.48l15.51-31.73L623.89,201.25z"/>
		<path class="st4" d="M685.58,259.59c-2.98,4.21-6.36,6.9-10.14,8.07c-3.78,1.18-7.45,0.5-11.02-2.03c-1.79-1.27-3.09-2.74-3.9-4.4
			c-0.81-1.67-1.16-3.51-1.05-5.55l-3.28,3.27l-5.43-3.85l29.46-41.53l6.47,4.59l-11.35,16c1.76-0.6,3.49-0.78,5.2-0.56
			c1.71,0.23,3.39,0.92,5.04,2.09c3.6,2.55,5.39,5.93,5.36,10.12c-0.03,4.2-1.68,8.6-4.95,13.21L685.58,259.59z M679.51,254.44
			c2.13-3,3.33-5.79,3.61-8.36c0.28-2.58-0.7-4.66-2.94-6.24c-1.44-1.02-2.87-1.55-4.29-1.6c-1.42-0.05-2.82,0.3-4.19,1.03
			l-8.57,12.09c-0.27,1.54-0.14,2.98,0.39,4.3c0.53,1.32,1.53,2.5,3,3.55c2.24,1.59,4.42,1.95,6.54,1.1
			c2.13-0.85,4.14-2.62,6.04-5.3L679.51,254.44z"/>
		<path class="st4" d="M711.45,266.87l-2.47-2.34c-1.16-1.02-2.35-1.62-3.56-1.81c-1.21-0.19-2.42-0.02-3.63,0.51l-16.17,18.46
			l-5.97-5.23l23.27-26.56l5.45,4.78l-2.98,4.2c1.86-0.77,3.66-1.08,5.39-0.92c1.73,0.16,3.28,0.84,4.66,2.04
			c0.36,0.32,0.67,0.64,0.93,0.97c0.26,0.33,0.49,0.65,0.68,0.96L711.45,266.87z"/>
		<path class="st4" d="M701.83,297.1l-5.6-5.62l25.02-24.92l5.6,5.62L701.83,297.1z M732.98,266.07l-5.6-5.62l4.92-4.91l5.6,5.62
			L732.98,266.07z"/>
		<path class="st4" d="M720.58,318.45c0.51-0.79,1.03-1.52,1.56-2.21c0.53-0.68,1.11-1.32,1.72-1.92c-1.97,0.22-3.95,0.01-5.94-0.64
			s-3.7-1.82-5.1-3.51c-2.35-2.83-3.43-5.61-3.23-8.33c0.2-2.72,1.57-5.14,4.11-7.26c2.63-2.18,5.53-2.85,8.72-1.99
			c3.19,0.86,6.35,3.17,9.48,6.93l3.94,4.74l2.39-1.98c1.42-1.18,2.19-2.52,2.3-4.03c0.11-1.51-0.49-3.03-1.78-4.59
			c-1.15-1.39-2.41-2.22-3.76-2.48c-1.35-0.26-2.55,0.04-3.61,0.92l-4.88-5.87l0.13-0.15c2.04-1.9,4.74-2.52,8.09-1.86
			c3.35,0.66,6.38,2.62,9.09,5.88c2.63,3.16,3.95,6.38,3.95,9.66c0.01,3.28-1.5,6.17-4.51,8.67l-12.07,10.04
			c-1.12,0.93-2.13,1.9-3.04,2.91c-0.9,1.01-1.71,2.09-2.42,3.24L720.58,318.45z M718.73,307.34c1.28,1.54,2.81,2.6,4.61,3.19
			c1.79,0.59,3.35,0.68,4.67,0.26l4.02-3.34l-4.03-4.85c-1.47-1.77-3.07-2.8-4.78-3.07c-1.71-0.27-3.16,0.08-4.35,1.07
			c-1.04,0.86-1.58,1.89-1.63,3.07C717.19,304.86,717.69,306.08,718.73,307.34z"/>
	</g>
	<g>
		<path class="st5" d="M352.62,452.56v27.66h-2.13c-0.66-5.33-1.87-9.54-3.65-12.65c-1.78-3.13-4.31-5.62-7.6-7.49
			c-3.3-1.85-6.69-2.77-10.19-2.77c-3.94,0-7.2,1.26-9.8,3.74c-2.62,2.49-3.92,5.31-3.92,8.48c0,2.44,0.84,4.67,2.49,6.68
			c2.38,2.95,7.99,6.87,16.84,11.76c7.24,4.01,12.2,7.09,14.84,9.25c2.66,2.16,4.69,4.67,6.12,7.57c1.41,2.91,2.11,5.94,2.11,9.11
			c0,6.03-2.27,11.27-6.8,15.68c-4.56,4.36-10.42,6.56-17.55,6.56c-2.29,0-4.4-0.13-6.4-0.48c-1.17-0.22-3.63-0.92-7.35-2.16
			c-3.72-1.28-6.06-1.89-7.07-1.89c-0.95,0-1.7,0.31-2.22,0.88c-0.55,0.62-0.97,1.8-1.26,3.65h-2.05v-27.34h2.05
			c0.99,5.68,2.33,9.95,4.03,12.81c1.67,2.86,4.25,5.24,7.68,7.14c3.46,1.85,7.27,2.82,11.38,2.82c4.73,0,8.5-1.32,11.25-3.92
			c2.78-2.55,4.16-5.64,4.16-9.2c0-1.94-0.53-3.92-1.56-5.94c-1.03-1.98-2.69-3.83-4.89-5.55c-1.47-1.19-5.53-3.66-12.15-7.49
			c-6.65-3.83-11.36-6.91-14.18-9.2c-2.82-2.29-4.95-4.8-6.41-7.57c-1.43-2.78-2.16-5.77-2.16-9.04c0-5.77,2.14-10.72,6.41-14.86
			c4.25-4.16,9.69-6.23,16.34-6.23c4.12,0,8.48,1.06,13.06,3.15c2.13,0.97,3.65,1.45,4.56,1.45c0.95,0,1.74-0.29,2.38-0.9
			c0.64-0.62,1.15-1.85,1.52-3.7H352.62z"/>
		<path class="st5" d="M402.39,529.75v2.16h-33.25v-2.16h2.78c3.17,0,5.48-0.92,6.96-2.73c0.9-1.23,1.34-4.18,1.34-8.81v-50.1
			c0-3.94-0.22-6.54-0.71-7.82c-0.37-0.95-1.17-1.76-2.33-2.42c-1.72-0.95-3.46-1.43-5.26-1.43h-2.78v-2.11h33.25v2.11h-2.84
			c-3.13,0-5.42,0.97-6.89,2.84c-0.95,1.19-1.41,4.14-1.41,8.83v50.1c0,3.92,0.22,6.47,0.71,7.71c0.37,0.97,1.17,1.8,2.42,2.51
			c1.65,0.88,3.37,1.32,5.17,1.32H402.39z"/>
		<path class="st5" d="M478.48,510.47l1.91,0.4l-6.67,21.05h-60.04v-2.16h2.93c3.26,0,5.61-1.06,7.02-3.17
			c0.82-1.23,1.21-4.05,1.21-8.45v-50.01c0-4.89-0.55-7.93-1.63-9.09c-1.47-1.72-3.68-2.58-6.61-2.58h-2.93v-2.11h35.09v2.11
			c-4.12-0.04-7,0.33-8.65,1.15c-1.67,0.81-2.78,1.83-3.37,3.06c-0.6,1.23-0.9,4.14-0.9,8.74v48.73c0,3.17,0.29,5.33,0.86,6.52
			c0.46,0.84,1.19,1.41,2.13,1.81c0.95,0.35,3.92,0.57,8.94,0.57h5.61c5.97,0,10.15-0.44,12.55-1.32c2.38-0.88,4.58-2.42,6.56-4.67
			C474.52,518.83,476.5,515.27,478.48,510.47z"/>
		<path class="st5" d="M548.51,454.34v2.11c-2.68,0.53-4.75,1.41-6.19,2.64c-2.03,1.89-3.83,4.75-5.39,8.59l-27.06,65.99h-2.07
			l-29.04-66.83c-1.52-3.46-2.6-5.57-3.21-6.32c-0.95-1.21-2.11-2.11-3.5-2.78c-1.41-0.68-3.28-1.1-5.66-1.3v-2.11h31.68v2.11
			c-3.54,0.33-5.86,0.95-6.91,1.83c-1.08,0.86-1.61,2-1.61,3.37c0,1.94,0.88,4.93,2.64,8.96l19.66,45.45l18.34-44.9
			c1.81-4.41,2.68-7.46,2.68-9.22c0-1.08-0.55-2.14-1.67-3.17c-1.1-1.01-2.95-1.72-5.57-2.09c-0.18-0.05-0.51-0.11-0.99-0.22v-2.11
			H548.51z"/>
		<path class="st5" d="M576.69,458.59v30.61h17c4.45,0,7.4-0.66,8.87-1.98c1.98-1.76,3.1-4.84,3.35-9.25h2.11v26.99h-2.11
			c-0.53-3.79-1.08-6.21-1.65-7.22c-0.66-1.37-1.76-2.47-3.33-3.21c-1.56-0.75-3.99-1.15-7.24-1.15h-17v25.58
			c0,3.48,0.15,5.55,0.44,6.3c0.29,0.75,0.82,1.32,1.58,1.76c0.79,0.4,2.25,0.62,4.38,0.62h13.14c4.36,0,7.53-0.31,9.51-0.88
			c1.98-0.62,3.92-1.81,5.74-3.61c2.38-2.33,4.8-5.94,7.27-10.7h2.27l-6.69,19.46h-59.73v-2.16h2.71c1.83,0,3.59-0.4,5.24-1.28
			c1.19-0.57,2-1.54,2.47-2.77c0.44-1.19,0.66-3.7,0.66-7.44v-50.43c0-4.89-0.48-7.93-1.47-9.09c-1.39-1.52-3.68-2.29-6.89-2.29
			h-2.71v-2.11h59.73l0.86,17.04h-2.2c-0.79-4.12-1.7-6.93-2.66-8.45c-0.97-1.52-2.4-2.66-4.29-3.48c-1.56-0.57-4.27-0.86-8.1-0.86
			H576.69z"/>
		<path class="st5" d="M712.9,535.7h-20.65l-26.29-38c-1.96,0.05-3.55,0.09-4.78,0.09c-0.46,0-0.99-0.04-1.54-0.04
			c-0.57-0.05-1.17-0.05-1.78-0.05v23.6c0,5.15,0.51,8.32,1.56,9.55c1.45,1.72,3.63,2.6,6.54,2.6H669v2.25h-33.24v-2.25h2.93
			c3.26,0,5.61-1.1,7.02-3.35c0.82-1.23,1.21-4.18,1.21-8.81v-52.52c0-5.11-0.53-8.28-1.56-9.53c-1.52-1.78-3.74-2.68-6.67-2.68
			h-2.93v-2.22h28.27c8.26,0,14.33,0.62,18.23,1.89c3.92,1.26,7.22,3.59,9.95,6.96c2.71,3.39,4.07,7.42,4.07,12.05
			c0,5.02-1.54,9.38-4.65,13.08c-3.1,3.65-7.92,6.25-14.44,7.79l15.98,23.34c3.68,5.37,6.85,8.94,9.47,10.7
			c2.64,1.76,6.06,2.86,10.26,3.3V535.7z M657.86,493.91c0.7,0,1.34,0,1.87,0.05c0.55,0,0.99,0,1.32,0c7.4,0,12.97-1.67,16.73-5.06
			c3.76-3.35,5.66-7.62,5.66-12.81c0-5.05-1.52-9.19-4.56-12.36c-3.04-3.17-7.07-4.76-12.09-4.76c-2.18,0-5.15,0.35-8.94,1.1V493.91
			z"/>
	</g>
	<g>
		<path class="st4" d="M231.75,652.29l0.1,0.12l19.05-5.95l2.93,5.13l-27.53,7.09l-2.5-4.38l13.37-14.35l0.2-0.17l-0.23,0.1
			l-19.13,4.28l-2.5-4.38l20.09-20.12l2.93,5.13l-14.5,13.34l0.05,0.14l19.53-4.59l2.23,3.9L231.75,652.29z"/>
		<path class="st4" d="M254.73,685.32l0.11,0.11l18.14-8.32l3.56,4.71l-26.41,10.52l-3.04-4.03l11.44-15.93l0.17-0.19l-0.22,0.13
			l-18.43,6.66l-3.04-4.03l17.38-22.5l3.56,4.71l-12.7,15.07l0.07,0.14l18.79-7.03l2.7,3.58L254.73,685.32z"/>
		<path class="st4" d="M281.74,715.21l0.12,0.09l16.94-10.54l4.12,4.23l-24.87,13.78l-3.52-3.61l9.34-17.25l0.15-0.21l-0.2,0.16
			l-17.44,8.94l-3.52-3.61l14.39-24.52l4.12,4.23l-10.69,16.55l0.09,0.13l17.75-9.35l3.13,3.21L281.74,715.21z"/>
		<path class="st4" d="M291.2,734.48l-4.61-4.04l3.89-4.44l4.61,4.04L291.2,734.48z"/>
		<path class="st4" d="M318.8,722.1l-1.81,3.1c1.49-0.54,2.98-0.7,4.5-0.49c1.51,0.21,2.99,0.83,4.43,1.87
			c1.45,1.04,2.47,2.27,3.04,3.68c0.57,1.41,0.64,2.96,0.22,4.65c1.57-0.74,3.17-1.06,4.8-0.96c1.63,0.11,3.2,0.7,4.71,1.79
			c2.24,1.6,3.46,3.64,3.66,6.1c0.2,2.46-0.82,5.25-3.05,8.37l-9.63,13.43l-5.01-3.59l9.64-13.45c1.36-1.9,1.99-3.46,1.89-4.7
			c-0.1-1.24-0.8-2.32-2.11-3.26c-1.07-0.77-2.18-1.13-3.34-1.08c-1.15,0.04-2.25,0.44-3.27,1.18c-0.15,0.21-0.27,0.39-0.36,0.55
			c-0.09,0.16-0.19,0.31-0.29,0.45l-10.35,14.44l-5.01-3.59l9.64-13.45c1.31-1.83,1.92-3.38,1.83-4.66
			c-0.09-1.28-0.78-2.38-2.07-3.31c-1.02-0.73-2.02-1.15-3.01-1.27c-0.99-0.11-1.94,0.04-2.87,0.45l-11.72,16.35l-5.01-3.59
			l15.98-22.29L318.8,722.1z"/>
		<path class="st4" d="M351.95,775.88c0.14-0.71,0.31-1.39,0.5-2.04c0.19-0.65,0.42-1.27,0.7-1.87c-1.36,0.72-2.85,1.13-4.48,1.23
			c-1.63,0.1-3.19-0.26-4.68-1.08c-2.5-1.37-4.07-3.07-4.71-5.1c-0.64-2.02-0.33-4.16,0.9-6.41c1.27-2.32,3.19-3.63,5.73-3.92
			c2.55-0.29,5.49,0.48,8.82,2.31l4.2,2.3l1.16-2.11c0.69-1.26,0.86-2.45,0.51-3.57c-0.35-1.12-1.21-2.05-2.59-2.81
			c-1.23-0.67-2.37-0.91-3.42-0.72c-1.05,0.19-1.83,0.76-2.34,1.69l-5.2-2.85l0.05-0.14c0.94-1.95,2.71-3.17,5.31-3.65
			c2.6-0.48,5.35,0.07,8.24,1.66c2.8,1.53,4.67,3.48,5.61,5.85c0.94,2.36,0.68,4.88-0.78,7.55l-5.86,10.69
			c-0.54,0.99-1,1.98-1.36,2.96c-0.37,0.98-0.64,1.99-0.82,3.03L351.95,775.88z M347.45,768.38c1.36,0.75,2.78,1.08,4.24,0.99
			c1.46-0.08,2.61-0.47,3.45-1.15l1.95-3.56l-4.29-2.35c-1.57-0.86-3.01-1.15-4.33-0.86c-1.32,0.29-2.26,0.96-2.84,2.01
			c-0.5,0.92-0.6,1.81-0.3,2.68C345.63,767.03,346.34,767.77,347.45,768.38z"/>
		<path class="st4" d="M385.22,767.5l-2.36-1.18c-1.09-0.49-2.11-0.68-3.05-0.55c-0.94,0.13-1.8,0.53-2.59,1.19l-7.87,17.36
			l-5.61-2.54l11.32-24.98l5.12,2.32l-1.27,3.79c1.21-0.99,2.47-1.62,3.79-1.9c1.32-0.27,2.63-0.12,3.92,0.47
			c0.34,0.15,0.64,0.32,0.91,0.51c0.27,0.19,0.51,0.37,0.72,0.56L385.22,767.5z"/>
		<path class="st4" d="M395.94,766.07l-0.81,3.5c1.26-0.95,2.64-1.55,4.15-1.8c1.51-0.25,3.1-0.09,4.78,0.47
			c1.7,0.56,3.03,1.44,3.99,2.61c0.96,1.18,1.49,2.63,1.59,4.38c1.28-1.18,2.71-1.96,4.3-2.34c1.59-0.38,3.26-0.28,5.02,0.31
			c2.61,0.87,4.38,2.45,5.3,4.74c0.92,2.29,0.78,5.26-0.43,8.9l-5.21,15.68l-5.84-1.94l5.22-15.7c0.74-2.21,0.87-3.9,0.41-5.05
			c-0.46-1.15-1.46-1.98-2.98-2.48c-1.25-0.42-2.42-0.43-3.51-0.05c-1.09,0.39-2.02,1.08-2.78,2.09c-0.08,0.24-0.14,0.45-0.18,0.63
			c-0.04,0.18-0.09,0.35-0.14,0.51l-5.6,16.86l-5.84-1.94l5.22-15.7c0.71-2.13,0.83-3.8,0.36-4.99c-0.47-1.2-1.45-2.04-2.96-2.55
			c-1.19-0.39-2.27-0.5-3.25-0.32c-0.98,0.18-1.84,0.61-2.6,1.28l-6.35,19.09l-5.84-1.94l8.65-26.02L395.94,766.07z"/>
		<path class="st4" d="M443.54,807.57c-0.08-0.72-0.12-1.42-0.13-2.1c-0.01-0.67,0.02-1.34,0.11-1.99
			c-1.08,1.09-2.39,1.93-3.91,2.51c-1.52,0.58-3.12,0.7-4.79,0.36c-2.8-0.57-4.8-1.72-6.01-3.46c-1.21-1.74-1.56-3.88-1.05-6.39
			c0.53-2.6,1.96-4.42,4.31-5.45c2.35-1.03,5.38-1.17,9.11-0.42l4.7,0.95l0.48-2.36c0.28-1.41,0.09-2.59-0.57-3.56
			c-0.67-0.96-1.77-1.6-3.31-1.91c-1.37-0.28-2.54-0.17-3.48,0.33c-0.95,0.5-1.52,1.27-1.73,2.31l-5.81-1.18l0-0.15
			c0.31-2.14,1.64-3.83,3.98-5.06c2.34-1.23,5.13-1.52,8.36-0.87c3.13,0.63,5.49,1.94,7.09,3.92c1.6,1.98,2.1,4.46,1.5,7.44
			l-2.42,11.95c-0.22,1.11-0.37,2.19-0.42,3.24c-0.06,1.05-0.02,2.1,0.11,3.14L443.54,807.57z M437.01,801.75
			c1.52,0.31,2.97,0.2,4.34-0.31c1.37-0.52,2.35-1.22,2.95-2.12l0.8-3.98l-4.79-0.97c-1.75-0.36-3.22-0.2-4.39,0.47
			c-1.17,0.67-1.87,1.59-2.11,2.77c-0.21,1.03-0.04,1.91,0.51,2.65C434.88,801,435.77,801.5,437.01,801.75z"/>
		<path class="st4" d="M462.93,810.5l-6.11-0.8l5.16-39.2l6.11,0.8L462.93,810.5z"/>
		<path class="st4" d="M487.62,812.6c-0.18-0.71-0.32-1.39-0.42-2.06c-0.1-0.67-0.16-1.33-0.17-1.99c-0.92,1.23-2.1,2.23-3.53,3.02
			c-1.43,0.78-3,1.12-4.7,1.01c-2.85-0.18-4.99-1.05-6.43-2.61c-1.43-1.56-2.07-3.63-1.91-6.19c0.17-2.65,1.34-4.64,3.52-5.99
			c2.18-1.34,5.17-1.9,8.97-1.66l4.78,0.3l0.15-2.4c0.09-1.43-0.26-2.58-1.05-3.44c-0.79-0.86-1.97-1.34-3.54-1.44
			c-1.4-0.09-2.53,0.18-3.4,0.8c-0.87,0.62-1.34,1.46-1.4,2.53l-5.92-0.37l-0.02-0.15c0.02-2.17,1.1-4.02,3.26-5.56
			c2.15-1.54,4.87-2.21,8.16-2c3.19,0.2,5.71,1.17,7.56,2.91c1.85,1.74,2.69,4.13,2.5,7.17l-0.77,12.17
			c-0.07,1.13-0.06,2.22,0.02,3.27s0.27,2.08,0.55,3.09L487.62,812.6z M480.36,807.72c1.55,0.1,2.97-0.2,4.26-0.9
			c1.29-0.7,2.17-1.53,2.63-2.5l0.25-4.05l-4.88-0.31c-1.79-0.11-3.22,0.24-4.28,1.06c-1.07,0.82-1.64,1.83-1.71,3.03
			c-0.07,1.05,0.22,1.9,0.87,2.56C478.14,807.28,479.09,807.64,480.36,807.72z"/>
		<path class="st4" d="M499.59,799.79c-0.13-4.37,0.7-7.93,2.49-10.66c1.79-2.73,4.39-4.15,7.78-4.25c1.49-0.05,2.82,0.22,4.02,0.78
			c1.19,0.56,2.23,1.39,3.13,2.48l-0.45-15.07l6.15-0.19l1.19,39.52l-5.17,0.15l-0.71-3.38c-0.84,1.31-1.86,2.32-3.08,3.02
			c-1.21,0.7-2.64,1.08-4.28,1.13c-3.36,0.1-6.01-1.04-7.96-3.44c-1.95-2.39-2.98-5.58-3.1-9.57L499.59,799.79z M505.76,800.14
			c0.08,2.53,0.62,4.54,1.64,6.01c1.02,1.47,2.58,2.18,4.69,2.12c1.3-0.04,2.39-0.35,3.28-0.94c0.88-0.58,1.6-1.4,2.14-2.45
			l-0.36-11.96c-0.6-1-1.37-1.76-2.3-2.3c-0.93-0.54-2.02-0.79-3.27-0.75c-2.09,0.06-3.61,0.99-4.55,2.79
			c-0.94,1.8-1.37,4.11-1.29,6.95L505.76,800.14z"/>
		<path class="st4" d="M544,810.82c-3.86,0.48-7.09-0.41-9.68-2.65c-2.6-2.24-4.14-5.34-4.63-9.3l-0.12-1.01
			c-0.49-3.96,0.24-7.38,2.19-10.27c1.95-2.89,4.64-4.53,8.06-4.94c3.67-0.45,6.62,0.31,8.85,2.3c2.23,1.98,3.57,4.84,4.03,8.58
			l0.44,3.6l-16.98,2.09l-0.04,0.13c0.37,2.14,1.22,3.83,2.55,5.06c1.33,1.23,3.03,1.71,5.09,1.46c1.64-0.2,3.03-0.58,4.15-1.12
			c1.12-0.55,2.18-1.26,3.18-2.15l2.46,3.77c-0.91,1.04-2.17,1.97-3.79,2.8C548.16,809.99,546.23,810.54,544,810.82z M540.43,787.56
			c-1.51,0.19-2.68,0.94-3.5,2.26c-0.83,1.32-1.24,2.92-1.25,4.79l0.07,0.12l10.79-1.33l-0.08-0.63c-0.21-1.73-0.83-3.08-1.84-4.06
			C543.6,787.73,542.2,787.34,540.43,787.56z"/>
		<path class="st4" d="M577.44,804.27c-0.36-0.63-0.68-1.25-0.96-1.87c-0.28-0.61-0.52-1.24-0.71-1.87
			c-0.55,1.43-1.41,2.72-2.57,3.87c-1.16,1.14-2.58,1.9-4.24,2.26c-2.79,0.61-5.09,0.36-6.9-0.75c-1.81-1.11-2.98-2.92-3.53-5.43
			c-0.56-2.59,0.02-4.83,1.75-6.72s4.46-3.24,8.17-4.05l4.68-1.02l-0.51-2.35c-0.31-1.4-0.96-2.41-1.96-3.02
			c-1-0.61-2.27-0.75-3.8-0.42c-1.37,0.3-2.39,0.87-3.05,1.7c-0.67,0.84-0.88,1.77-0.66,2.81l-5.8,1.26l-0.06-0.14
			c-0.57-2.09-0.04-4.17,1.61-6.24c1.65-2.07,4.08-3.46,7.3-4.16c3.12-0.68,5.81-0.43,8.07,0.73c2.26,1.17,3.71,3.24,4.36,6.21
			l2.59,11.91c0.24,1.11,0.55,2.15,0.92,3.13c0.37,0.98,0.83,1.93,1.37,2.83L577.44,804.27z M569.12,801.57
			c1.52-0.33,2.8-1.01,3.85-2.03c1.05-1.02,1.66-2.06,1.85-3.12l-0.86-3.96l-4.78,1.04c-1.75,0.38-3.03,1.11-3.83,2.19
			s-1.07,2.21-0.82,3.38c0.22,1.02,0.73,1.76,1.53,2.22C566.87,801.75,567.88,801.84,569.12,801.57z"/>
		<path class="st4" d="M611.38,785.91l0.13-0.07L609.34,766l5.6-1.89l1.66,28.38l-4.78,1.61l-11.51-15.88l-0.13-0.22l0.06,0.25
			l0.51,19.59l-4.78,1.61l-15.87-23.58l5.6-1.89l10.29,16.8l0.15-0.02l-0.74-20.05l4.25-1.43L611.38,785.91z"/>
		<path class="st4" d="M644.53,780.34c-0.49-0.53-0.94-1.07-1.35-1.61c-0.41-0.54-0.77-1.09-1.1-1.67
			c-0.22,1.52-0.78,2.96-1.66,4.34c-0.88,1.37-2.09,2.42-3.64,3.14c-2.59,1.21-4.89,1.47-6.89,0.78c-2.01-0.69-3.55-2.19-4.64-4.52
			c-1.12-2.4-1.04-4.72,0.23-6.94c1.27-2.22,3.63-4.14,7.08-5.75l4.34-2.02l-1.02-2.18c-0.61-1.3-1.46-2.14-2.57-2.52
			c-1.11-0.38-2.38-0.24-3.8,0.43c-1.27,0.59-2.14,1.37-2.6,2.33c-0.46,0.96-0.47,1.93-0.02,2.89l-5.37,2.5l-0.09-0.13
			c-1.02-1.91-0.95-4.06,0.2-6.44c1.16-2.38,3.23-4.27,6.21-5.66c2.89-1.35,5.57-1.7,8.03-1.06c2.46,0.64,4.33,2.34,5.62,5.1
			l5.15,11.05c0.48,1.03,1.01,1.98,1.58,2.86c0.58,0.88,1.23,1.7,1.96,2.46L644.53,780.34z M635.82,779.53
			c1.41-0.66,2.51-1.6,3.31-2.83c0.8-1.23,1.17-2.38,1.11-3.46l-1.71-3.68l-4.43,2.07c-1.62,0.76-2.71,1.75-3.25,2.98
			c-0.55,1.23-0.56,2.39-0.06,3.48c0.44,0.95,1.1,1.56,1.99,1.83C633.65,780.2,634.67,780.07,635.82,779.53z"/>
		<path class="st4" d="M657.5,748.54l-2.35,1.2c-1.05,0.59-1.8,1.3-2.25,2.14c-0.45,0.84-0.64,1.77-0.57,2.79l9.34,16.61l-5.37,3.02
			l-13.44-23.9l4.9-2.76l2.31,3.27c-0.08-1.56,0.15-2.95,0.72-4.18c0.56-1.23,1.46-2.19,2.7-2.88c0.32-0.18,0.64-0.33,0.95-0.43
			c0.31-0.11,0.6-0.19,0.88-0.25L657.5,748.54z"/>
		<path class="st4" d="M664.87,754.23c-2.43-3.64-3.62-7.09-3.55-10.36c0.07-3.27,1.51-5.85,4.34-7.73
			c1.23-0.83,2.51-1.32,3.82-1.47c1.31-0.15,2.63-0.01,3.97,0.44l-8.39-12.53l5.12-3.42L692.17,752l-4.3,2.87l-2.39-2.48
			c-0.02,1.56-0.35,2.95-1,4.2c-0.65,1.24-1.66,2.32-3.02,3.23c-2.79,1.87-5.65,2.31-8.57,1.32c-2.92-0.99-5.49-3.14-7.71-6.46
			L664.87,754.23z M670.29,751.25c1.41,2.11,2.94,3.51,4.58,4.22s3.34,0.48,5.1-0.7c1.08-0.72,1.84-1.57,2.28-2.53
			s0.61-2.04,0.52-3.21l-6.65-9.94c-1.04-0.52-2.1-0.77-3.17-0.73c-1.07,0.04-2.13,0.4-3.17,1.1c-1.74,1.17-2.53,2.76-2.38,4.78
			c0.15,2.02,1.02,4.21,2.6,6.57L670.29,751.25z"/>
		<path class="st4" d="M706.22,731.43c-0.6-0.73-1.41-1.09-2.43-1.06c-1.02,0.03-2.54,0.55-4.56,1.58c-2.98,1.53-5.52,2.33-7.63,2.4
			c-2.11,0.07-3.86-0.75-5.24-2.45c-1.45-1.78-1.93-3.92-1.44-6.4c0.49-2.48,1.96-4.73,4.43-6.73c2.6-2.11,5.18-3.14,7.74-3.11
			c2.57,0.04,4.58,1.03,6.05,2.97l0.06,0.15l-4.58,3.72c-0.71-0.88-1.66-1.36-2.84-1.45c-1.18-0.08-2.35,0.35-3.52,1.29
			c-1.16,0.94-1.82,1.91-2.01,2.92c-0.18,1.01,0.03,1.89,0.64,2.63c0.61,0.75,1.37,1.11,2.3,1.09c0.93-0.02,2.4-0.57,4.42-1.65
			c3.12-1.62,5.74-2.46,7.85-2.5c2.11-0.05,3.86,0.8,5.27,2.53c1.56,1.91,2.03,4.11,1.42,6.59c-0.61,2.48-2.21,4.76-4.79,6.86
			c-2.77,2.25-5.53,3.31-8.28,3.2c-2.75-0.12-4.83-1.12-6.24-3.02l-0.06-0.15l4.45-3.61c1.05,1.19,2.23,1.73,3.53,1.61
			c1.3-0.12,2.55-0.67,3.76-1.65c1.23-1,1.99-2.01,2.28-3.02C707.05,733.14,706.87,732.23,706.22,731.43z"/>
		<path class="st4" d="M725.59,724.1l-4.49,4.18l-4.03-4.32l4.49-4.18L725.59,724.1z"/>
		<path class="st4" d="M736.71,706.61c1.03-1.1,1.57-2.32,1.63-3.68s-0.39-2.49-1.36-3.4l3.81-4.07l0.15,0.07
			c1.93,1.69,2.83,3.97,2.7,6.82c-0.13,2.85-1.24,5.4-3.33,7.63c-2.76,2.95-5.83,4.32-9.2,4.11c-3.37-0.21-6.51-1.67-9.42-4.4
			l-0.65-0.61c-2.9-2.72-4.56-5.75-4.99-9.11c-0.43-3.36,0.73-6.51,3.49-9.46c2.25-2.4,4.78-3.7,7.58-3.89s5.26,0.76,7.37,2.83
			l0.08,0.14l-3.83,4.09c-1.1-1.03-2.37-1.54-3.81-1.53c-1.44,0.01-2.7,0.59-3.79,1.75c-1.58,1.69-2.09,3.46-1.52,5.31
			c0.57,1.85,1.77,3.64,3.62,5.37l0.65,0.6c1.88,1.77,3.76,2.87,5.63,3.3C733.4,708.92,735.13,708.3,736.71,706.61z"/>
		<path class="st4" d="M740.11,688.76c-3.22-2.5-5.17-5.43-5.87-8.8c-0.68-3.39,0.17-6.62,2.54-9.67c2.41-3.11,5.34-4.74,8.78-4.89
			c3.43-0.18,6.77,0.99,9.99,3.49l0.42,0.33c3.26,2.53,5.22,5.48,5.9,8.85c0.67,3.35-0.19,6.56-2.58,9.64
			c-2.4,3.1-5.32,4.73-8.76,4.91c-3.42,0.16-6.76-1.01-10-3.53L740.11,688.76z M744.3,684.21c2.1,1.64,4.14,2.56,6.12,2.77
			c1.95,0.21,3.61-0.56,4.96-2.31c1.32-1.69,1.64-3.47,0.98-5.34c-0.67-1.89-2.06-3.65-4.16-5.29l-0.42-0.33
			c-2.07-1.61-4.1-2.5-6.09-2.68c-2-0.21-3.67,0.55-5.01,2.27c-1.32,1.69-1.63,3.48-0.93,5.37c0.7,1.87,2.08,3.61,4.13,5.2
			L744.3,684.21z"/>
		<path class="st4" d="M750.66,652.36l3.24,1.55c-0.66-1.44-0.94-2.92-0.86-4.44c0.08-1.52,0.58-3.05,1.49-4.57
			c0.92-1.54,2.05-2.65,3.41-3.34c1.35-0.69,2.89-0.89,4.62-0.61c-0.87-1.51-1.32-3.07-1.35-4.7c-0.03-1.63,0.43-3.25,1.39-4.84
			c1.41-2.36,3.34-3.75,5.77-4.15s5.3,0.38,8.59,2.34l14.19,8.47l-3.16,5.29l-14.21-8.49c-2-1.2-3.61-1.69-4.84-1.49
			c-1.22,0.2-2.25,0.99-3.07,2.37c-0.68,1.13-0.94,2.27-0.8,3.42c0.14,1.15,0.62,2.2,1.44,3.17c0.22,0.13,0.41,0.24,0.58,0.32
			s0.33,0.16,0.47,0.25l15.25,9.11l-3.16,5.29l-14.21-8.49c-1.93-1.15-3.53-1.63-4.8-1.43c-1.27,0.2-2.31,0.98-3.12,2.34
			c-0.64,1.07-0.98,2.11-1.01,3.1c-0.03,0.99,0.2,1.93,0.69,2.82l17.28,10.32l-3.16,5.29l-23.54-14.06L750.66,652.36z"/>
	</g>
</g>
</svg>
